<?xml version="1.0" encoding="utf-8"?>
<!-- Generator: Adobe Illustrator 28.3.0, SVG Export Plug-In . SVG Version: 6.00 Build 0)  -->
<svg version="1.1" id="Layer_1" xmlns="http://www.w3.org/2000/svg" xmlns:xlink="http://www.w3.org/1999/xlink" x="0px" y="0px"
	 viewBox="0 0 830.2 262.6" style="enable-background:new 0 0 830.2 262.6;" xml:space="preserve">
<style type="text/css">
	.st0{fill:#FFFFFF;}
	.st1{fill:#495965;}
	.st2{fill:#7A003C;}
	.st3{fill:#FDBF57;}
</style>
<g>
	<g>
		<g>
			<path class="st0" d="M76.6,116.2c-0.8-0.7-2-0.7-2.9-0.7l-0.3,0c-1.3,0-2.5-0.1-3.3-1.2c-1-1.3-1-5.2-0.9-6.9l0-0.4V63.2
				c0-0.4,0-0.8,0-1.3c-0.1-1.9-0.1-5,0.7-6.1c0.5-0.7,1.9-0.7,3-0.6c0.3,0,0.5,0,0.7,0c2.7,0,3-1.7,3-2.5c0-0.7-0.2-1.2-0.6-1.5
				c-0.6-0.6-1.6-0.5-2.4-0.4c-0.2,0-0.4,0-0.6,0H62.2c-1.1,0-2.5,0-3.3,1.9l-19.5,48.8c-3.1-8.6-17.2-47-17.2-46.9
				C22,54.3,22,54,21.9,53.8c-0.4-1.4-0.9-2.9-3-2.9H7.6c-0.2,0-0.4,0-0.6,0c-0.8-0.1-1.7-0.1-2.4,0.4C4.2,51.6,4,52.1,4,52.7
				c0,0.7,0.3,2.5,3,2.5c2.2,0,3.6,0.1,4.2,0.7c0.6,0.6,0.6,2.1,0.4,4.8l-3,47.2c-0.3,5.7-0.7,7.6-5.4,7.6c-2.8,0-3.2,1.3-3.2,2.1
				c0,0.9,0.4,2,2.3,2c1.4,0,2.9-0.1,4.3-0.2c1.4-0.1,2.9-0.2,4.4-0.2c1.4,0,2.9,0.1,4.4,0.2c1.5,0.1,3,0.2,4.5,0.2
				c0.9,0,2.8,0,2.8-2c0-0.5-0.2-1-0.5-1.3c-0.8-0.8-2.1-0.7-3-0.7h-0.2c-2,0-3.4-0.5-4.3-1.4c-1.8-1.9-1.8-5.6-1.5-10.2l2.7-42.1
				c3.1,8.7,18.8,52.7,18.8,52.7l0,0.1c0.2,0.9,0.6,2.5,2.1,2.5c1.3,0,1.7-1.3,2-2.1l0.1-0.3l21.1-54v46.4l0,0.6
				c0,1.9,0,5.3-1.3,6.5c-0.9,0.8-2.8,1.4-4.1,1.4l-0.3,0c-0.8,0-2.1,0-2.9,0.7c-0.4,0.4-0.6,0.8-0.6,1.4c0,0.9,0.4,2,2.6,2
				c1.9,0,3.9-0.1,5.8-0.2c1.9-0.1,3.9-0.2,5.9-0.2c1.6,0,3.1,0.1,4.7,0.2c1.6,0.1,3.2,0.2,4.7,0.2c2.1,0,2.6-1.1,2.6-2
				C77.1,117.1,76.9,116.6,76.6,116.2"/>
			<path class="st0" d="M118.4,83.6c-1.7,0-2.8-1.9-4.2-4.4c-2-3.5-4.6-7.8-9.3-7.8c-3.6,0-7.6,2.2-10,4.4
				c-4.5,4.2-7.2,10.8-7.2,17.5c0,10.7,7.1,22.2,18.7,22.2c4.5,0,8.5-1.6,11.4-4.7l0.2-0.2c0.6-0.7,1.2-1.3,1.9-1.3
				c0.8,0,1.4,0.7,1.4,1.6c0,0.6-0.3,1.7-3.3,4.5c-4.3,3.7-9.6,5.7-15.5,5.7c-12.9,0-23.8-11.7-23.8-25.4
				c0-14.9,12.6-27.4,27.5-27.4c3.8,0,9.6,1.2,13.1,3.8c1.4,1,1.2,2.9,1.1,4.5c0,0.3,0,0.7,0,0.9c0,0.1,0,0.3,0,0.6
				c0.1,2,0.2,4.3-0.8,5.3C119.3,83.4,118.8,83.6,118.4,83.6"/>
			<path class="st0" d="M199.8,116.2c-0.8-0.7-2-0.7-2.9-0.7l-0.3,0c-1.3,0-2.5-0.1-3.3-1.2c-1-1.3-1-5.2-0.9-6.9l0-0.4V63.2
				c0-0.4,0-0.8,0-1.3c-0.1-1.9-0.1-5,0.7-6.1c0.5-0.7,1.9-0.7,3-0.6c0.3,0,0.5,0,0.7,0c2.7,0,3-1.7,3-2.5c0-0.7-0.2-1.2-0.6-1.5
				c-0.6-0.6-1.6-0.5-2.4-0.4c-0.2,0-0.4,0-0.6,0h-10.9c-1.1,0-2.5,0-3.3,1.9l-19.5,48.8c-3.1-8.6-17.2-47-17.2-46.9
				c-0.1-0.3-0.2-0.5-0.2-0.8c-0.4-1.4-0.9-2.9-3-2.9h-11.4c-0.2,0-0.4,0-0.6,0c-0.8-0.1-1.7-0.1-2.4,0.4c-0.4,0.3-0.6,0.8-0.6,1.5
				c0,0.7,0.3,2.5,3,2.5c2.2,0,3.6,0.1,4.2,0.7c0.6,0.6,0.6,2.1,0.4,4.8l-3,47.2c-0.3,5.7-0.7,7.6-5.4,7.6c-2.8,0-3.2,1.3-3.2,2.1
				c0,0.9,0.4,2,2.3,2c1.4,0,2.9-0.1,4.3-0.2c1.4-0.1,2.9-0.2,4.4-0.2c1.4,0,2.9,0.1,4.4,0.2c1.5,0.1,3,0.2,4.5,0.2
				c0.9,0,2.8,0,2.8-2c0-0.5-0.2-1-0.5-1.3c-0.8-0.8-2.1-0.7-3-0.7h-0.2c-2,0-3.4-0.5-4.3-1.4c-1.8-1.9-1.8-5.6-1.5-10.2l2.7-42.1
				c3.1,8.7,18.8,52.7,18.8,52.7l0,0.1c0.2,0.9,0.6,2.5,2.1,2.5c1.3,0,1.7-1.3,2-2.1l0.1-0.3l21.1-54v46.4l0,0.6
				c0,1.9,0,5.3-1.3,6.5c-0.9,0.8-2.8,1.4-4.1,1.4l-0.3,0c-0.8,0-2.1,0-2.9,0.7c-0.4,0.4-0.6,0.8-0.6,1.4c0,0.9,0.4,2,2.5,2
				c1.9,0,3.9-0.1,5.8-0.2c1.9-0.1,3.9-0.2,5.9-0.2c1.6,0,3.1,0.1,4.7,0.2c1.6,0.1,3.2,0.2,4.7,0.2c2.1,0,2.6-1.1,2.6-2
				C200.3,117.1,200.2,116.6,199.8,116.2"/>
			<path class="st0" d="M227.4,91.3c3.5-1.8,3.5-1.8,3.5-5.6v-4.9c0-5.8-0.4-9.3-6-9.3c-5.4,0-8.7,2.6-11.4,8.9l-0.2,0.5
				c-0.6,1.5-1.3,3-3,3.8c-1.1,0.6-3.3,1.5-4.7,1.5c-1.4,0-2-0.7-2-2c0-3.1,2.4-6.5,4.5-8.4c5-4.9,12.3-7.9,19.1-7.9
				c4.5,0,7.8,1.1,9.9,3.1c2.4,2.1,2.3,4.8,2.3,7.5l0,1.1v26.2v0.2c0,1.8,0,6,1.6,7.5c0.4,0.4,0.8,0.5,1.4,0.5c1.3,0,2.2-0.9,3-1.7
				c0.6-0.6,1.1-1.1,1.7-1.1c0.8,0,1.4,0.7,1.4,1.6c0,1.5-1.7,3-2.6,3.8l-0.1,0.1c-2.1,1.6-4.9,3.4-7.8,3.4c-3.8,0-5.3-3.6-6.3-6
				c-0.3-0.7-0.7-1.6-0.9-1.8l0.1,0l0.2,0c-0.2,0.1-0.8,0.6-1.4,1.1c-2.7,2.4-8.4,7.3-15.6,7.3c-5,0-10.4-3.3-10.4-9.4
				c0-8,9-12.7,15-15.8l0.7-0.4L227.4,91.3 M220.6,98.7c-4,2.2-7.8,4.9-7.8,9.9c0,4.3,3.5,5.9,6.5,5.9c3.3,0,6.7-1.6,9.2-4.2
				c2.3-2.6,2.4-4.3,2.4-7.9v-6.7c0-0.1,0-0.2,0-0.3c0.1-1.7-0.1-2.1-0.2-2.2l0.1,0l0,0c-0.1,0-0.3,0.1-0.5,0.2
				c-0.2,0.1-0.3,0.1-0.5,0.2l0.1,0L220.6,98.7"/>
			<path class="st0" d="M251.8,105.4l0-0.2c0.1-0.9,0.3-2.9,2-2.9c1.8,0,2.3,2.1,2.8,4.6c0.9,4.5,2.1,10.6,10.8,10.6
				c5.8,0,12-3.6,12-10.2c0-6.1-4.9-8.4-9.5-10.1l-0.9-0.3c-6.5-2.2-15.4-5.3-15.4-14.3c0-4.2,2-8,5.8-10.9
				c3.3-2.5,7.5-3.7,12.7-3.7c2.7,0,8.3,0.7,10.9,1.9c1.8,0.9,1.7,3,1.6,4.6c0,0.4-0.1,0.7-0.1,1c0,0.1,0,0.3,0,0.5
				c0.2,2,0.3,4.2-0.6,5.1c-0.3,0.3-0.7,0.5-1.1,0.5c-1.3,0-1.8-1.3-2.5-3c-1.3-3.1-3-7.5-10.1-7.5c-3.6,0-8.9,2.7-8.9,7.6
				c0,5.5,5,7.4,10.9,9.5c7,2.6,15,5.5,15,15.8c0,11.7-11.9,16.9-20.3,16.9c-3.5,0-9.8-1.4-13.5-3.4c-1.8-0.9-1.8-2.5-1.8-4.1l0-0.5
				L251.8,105.4"/>
			<path class="st0" d="M318.4,112.9c0-0.7-0.6-1.4-1.4-1.4c-0.5,0-1,0.4-1.8,1.1c-1.3,1.1-3.3,2.8-5.6,2.8c-1.3,0-2.3-0.4-3.1-1.1
				c-2.4-2.3-2.4-7.5-2.4-11V103V74.8c0-1.1,0.2-1.5,0.4-1.7c0.3-0.2,0.9-0.2,1.7-0.2c0.3,0,0.7,0,1.1,0h5.8c0.4,0,0.8,0,1.1,0
				c0.9,0,1.6,0.1,2.2-0.4c0.5-0.5,0.6-1.3,0.6-2c0-0.8,0-2.2-1.6-2.2l-10.2,0c-0.8-0.1-1-0.1-1-1.6v-7.9c0-1.7-0.8-2-1.5-2
				c-1,0-1.5,1-1.7,1.4c-2.3,5.2-5.2,7.9-9.6,11l-0.2,0.2c-0.5,0.4-1.2,1-1.2,1.9c0,0.4,0.2,0.8,0.5,1.1c0.7,0.6,2,0.6,3.1,0.5
				c0.1,0,0.3,0,0.3,0c0.2,0,0.5,0,0.7,0c0.4,0,1,0,1.1,0.1c0,0,0.2,0.3,0.2,1.3V103l0,1.6c0,4.3-0.1,9.2,2.4,12.6
				c1.8,2.3,4.7,3.7,8,3.7c3.6,0,7.2-1.5,10.1-4.3C316.7,116.1,318.4,114.4,318.4,112.9"/>
			<path class="st0" d="M361.7,107.4c-0.6,0-1.2,0.5-2.2,1.5c-2.1,2-6,5.8-13.1,5.8c-12.7,0-19.4-11.4-19.4-22.6
				c0-1.4,0.1-2.1,0.5-2.4c0.4-0.4,1.2-0.3,2.6-0.3l0.5,0h31.3c0.6,0,1.9-0.3,1.9-2.6c0-3.8-1.6-8.7-3.8-11.6
				c-3.5-4.5-9.1-7.1-15.5-7.1c-7.2,0-13.8,2.6-19.1,7.6c-5.2,4.9-7.6,10.8-7.6,19c0,14.7,10.6,26.3,24.2,26.3c6.8,0,12-2,16.8-6.4
				l0.1-0.1c2.9-2.7,4.2-4.3,4.2-5.4C363.2,108.1,362.5,107.4,361.7,107.4 M330.3,78.5c3-4.4,7.8-7.1,12.9-7.1
				c2.6,0,6.1,0.6,8.5,3.2c1.5,1.8,2.5,4.2,2.5,6.1c0,2.1-1,3.2-3.3,3.8c-2.9,0.8-8.7,0.9-11.8,0.9h-8.4c-0.2,0-0.3,0-0.5,0
				c-0.7,0-1.8,0.1-2.2-0.3c-0.1-0.1-0.2-0.2-0.2-0.5C327.8,83,329.3,79.7,330.3,78.5"/>
			<path class="st0" d="M394.6,68.6c-5.5,0-9.2,4.9-11.2,7.5c-0.3,0.4-0.6,0.8-0.8,1.1c0-0.2,0-0.6,0-1c0-0.1,0-0.2,0-0.3v-5.5
				l0-0.2c0-0.5,0-1.3-0.5-1.7c-0.2-0.2-0.5-0.4-1.1-0.4c-1,0-1.6,0.8-2.1,1.3c-0.1,0.1-0.2,0.2-0.3,0.4c-1.6,2.1-6,4.8-8.3,5.5
				c-0.1,0-0.3,0.1-0.4,0.1c-0.9,0.3-2.4,0.8-2.4,2.4c0,0.9,0.8,1.6,1.9,1.6h1.3c1.2,0,2.1,0.2,2.5,0.7c0.9,0.9,0.9,5,0.9,6.3l0,0.4
				v20.9c0,0.6,0,1.2,0,1.8c0.1,4.2,0,6.2-4.1,6.6c-0.2,0-0.3,0-0.5,0c-1,0.1-3,0.1-3,2.2c0,1.1,0.8,1.8,2.1,1.8
				c1.6,0,3.3-0.1,4.9-0.2c1.6-0.1,3.3-0.2,4.9-0.2c1.5,0,3,0.1,4.7,0.2c1.7,0.1,3.4,0.2,5.1,0.2c1.2,0,1.9-0.7,1.9-1.9
				c0-1.9-2-2-3.1-2.1c-0.2,0-0.3,0-0.5,0c-4.1-0.4-4.2-2.4-4.1-6.6c0-0.6,0-1.2,0-1.8V90v-0.5c0-4.1,0-6.8,2.3-10.3
				c1.1-1.5,2.8-3.7,4.7-3.7c1,0,1.6,0.6,2.4,1.7c0.9,1.1,2,2.5,4.2,2.5c3,0,5-2.1,5-5.1C401.2,71.1,398.4,68.6,394.6,68.6"/>
			<path class="st0" d="M34.7,144.9l0-0.3c0-1.4,0-4.8-0.6-5.9c-0.6-1.1-1.7-1.2-3.1-1.2H31c-0.5,0-1.3,0-1.8-0.5
				c-0.2-0.2-0.4-0.5-0.4-1c0-0.4,0.2-0.8,0.4-1.1c0.4-0.3,0.9-0.5,1.6-0.5c1,0,1.9,0.1,2.8,0.1c0.9,0.1,1.8,0.1,2.7,0.1
				c0.8,0,1.5-0.1,2.3-0.1c0.8-0.1,1.6-0.1,2.5-0.1c1.8,0,2,1.1,2,1.5c0,1.1-0.9,1.6-2.7,1.6c-2.3,0-2.4,1.1-2.5,3.8
				c0,0.4,0,0.7,0,1.1l0,20.7c0,4.1,0,7.7-3.6,11.1c-2.7,2.5-6.6,3.7-12.1,3.7c-2.9,0-8.4-0.4-11.9-3.2c-3.9-2.9-3.9-6.9-3.9-11.2
				v-0.4v-20.9l0-0.8c0-1.8,0-2.9-0.5-3.4c-0.4-0.4-1.3-0.6-2.8-0.6c-1.5,0-2.2-0.5-2.2-1.5c0-0.5,0.1-0.9,0.4-1.2
				c0.3-0.3,0.7-0.4,1.3-0.4c1.2,0,2.4,0.1,3.5,0.1c1.1,0.1,2.3,0.1,3.4,0.1c1.2,0,2.3-0.1,3.5-0.1c1.2-0.1,2.4-0.1,3.6-0.1
				c1.1,0,1.8,0.6,1.8,1.6c0,1-0.8,1.5-2.3,1.5c-1.6,0-2.4,0.2-2.8,0.6c-0.5,0.5-0.5,1.7-0.5,3.4l0,0.8V161v0.7c0,2.8,0,7.1,1.2,9.3
				c2.1,3.7,7.7,4,9.4,4c2.4,0,6.8-0.4,9.5-3.4c2-2.3,2-5,2-8.1v-0.3V144.9z"/>
			<path class="st0" d="M75.4,174.5l-0.3,0c-2.1-0.2-2.2-1.1-2.2-3.7c0-0.4,0-0.7,0-1.1v-10.5l0-0.5c0-3.1,0-6.3-2-9
				c-1.8-2.5-4.5-3.8-7.9-3.8c-4.2,0-7.2,2.8-9,4.4c-0.1,0.1-0.3,0.3-0.4,0.4v-3l0-0.1c0-0.4,0-0.9-0.4-1.3
				c-0.2-0.2-0.4-0.3-0.9-0.3c-0.7,0-1.2,0.5-1.5,0.9l-0.2,0.2c-0.9,1.2-3.5,2.8-4.8,3.2l-0.2,0.1c-0.6,0.2-1.6,0.5-1.6,1.7
				c0,0.7,0.6,1.2,1.4,1.2h0.8c0.7,0,1.1,0.2,1.3,0.3c0.2,0.2,0.4,1,0.4,3.6v0.2v12.5c0,0.4,0,0.7,0,1.1c0.1,2.6,0,3.5-2.2,3.7
				l-0.3,0c-0.6,0-2.1,0.1-2.1,1.6c0,0.6,0.4,1.3,1.6,1.3c1,0,2-0.1,2.9-0.1c1-0.1,2-0.1,2.9-0.1c0.9,0,1.8,0.1,2.7,0.1
				c1,0.1,2,0.1,3.1,0.1c0.9,0,1.4-0.6,1.4-1.4c0-1.4-1.5-1.5-2.1-1.5l-0.3,0c-2.1-0.2-2.2-1.1-2.2-3.7c0-0.3,0-0.7,0-1.1v-11.2
				c0-2.6,0.2-3.9,1.8-5.7c1.5-1.7,3.5-2.6,5.6-2.6c2.2,0,4.2,1,5.2,2.7c1,1.6,1,4.2,1,6.2v10.6c0,0.4,0,0.7,0,1.1
				c0.1,2.6,0,3.5-2.2,3.7l-0.3,0c-0.6,0-2.1,0.1-2.1,1.6c0,0.6,0.4,1.3,1.6,1.3c1,0,2-0.1,2.9-0.1c1-0.1,1.9-0.1,2.9-0.1
				c0.9,0,1.8,0.1,2.7,0.1c1,0.1,2,0.1,3,0.1c0.9,0,1.4-0.6,1.4-1.4C77.5,174.6,76.1,174.5,75.4,174.5"/>
			<path class="st0" d="M84.5,137.4c0-2.2,1.5-4,3.5-4c2.1,0,3.3,2,3.3,3.9c0,2.4-1.4,4-3.4,4C85.9,141.3,84.5,139.7,84.5,137.4
				 M90.7,169.7c0,0.4,0,0.7,0,1.1c-0.1,2.6,0,3.5,2.2,3.7l0.3,0c0.6,0,2.1,0.1,2.1,1.5c0,0.9-0.6,1.4-1.4,1.4c-1,0-2.1-0.1-3-0.1
				c-1-0.1-1.9-0.1-2.7-0.1c-1,0-2,0.1-2.9,0.1c-1,0.1-2,0.1-2.9,0.1c-1.2,0-1.6-0.7-1.6-1.3c0-1.5,1.4-1.6,2.1-1.6l0.3,0
				c2.1-0.2,2.2-1.1,2.2-3.7c0-0.4,0-0.7,0-1.1v-12.5v-0.2c0-2.6-0.2-3.4-0.4-3.6c-0.1-0.1-0.5-0.3-1.3-0.3h-0.8
				c-0.9,0-1.4-0.5-1.4-1.2c0-1.2,1.1-1.5,1.6-1.7l0.2-0.1c1.3-0.4,3.9-2,4.8-3.2l0.2-0.2c0.3-0.4,0.7-0.9,1.5-0.9
				c0.4,0,0.7,0.2,0.9,0.3c0.4,0.4,0.4,0.9,0.4,1.3l0,0.1V169.7z"/>
			<path class="st0" d="M128.2,146.8c-0.3-0.3-0.7-0.3-1-0.3l-0.2,0h-9.1c-0.4,0-1.6,0-1.6,1.3c0,1.4,1.8,1.4,2.4,1.4
				c0.4,0,1.7,0.1,1.7,1.1c0,0.5-0.4,1.5-0.6,2.1c-0.1,0.2-0.1,0.4-0.2,0.5c0,0-4.8,11.3-6.6,15.6c-1.6-4.2-5.7-15-5.7-15l-0.1-0.2
				c-0.3-0.7-0.9-2.2-0.9-2.9c0-0.9,1-1.2,1.6-1.2l0.2,0c0.5,0,1.3,0.1,1.9-0.4c0.2-0.2,0.4-0.5,0.4-0.9c0-0.4-0.1-0.8-0.4-1
				c-0.4-0.4-1-0.4-1.4-0.4l-0.1,0H97.3l-0.1,0c-0.3,0-0.8,0-1.2,0.3c-0.2,0.2-0.4,0.5-0.4,0.9c0,0.9,0.6,1.4,1.8,1.4
				c2,0.1,2.2,0.8,3,3l0.2,0.4l9,23.3l0.4,0.8c0.2,0.7,0.7,1.1,1.2,1.1c0.9,0,1.3-1,1.6-1.7l0.1-0.2l0,0l0,0l8.8-20.6
				c0.1-0.3,0.3-0.6,0.4-0.9c0.9-2.3,2-4.9,4.1-5.2l0.2,0c0.5-0.1,2-0.2,2-1.5C128.5,147.6,128.5,147.1,128.2,146.8"/>
			<path class="st0" d="M155.2,169.3c-0.5,0-0.9,0.4-1.5,1c-1.2,1.2-3.5,3.4-7.6,3.4c-7.4,0-11.3-6.7-11.3-13.3c0-1,0.1-1.2,0.2-1.3
				c0.1-0.1,0.7-0.1,1.3-0.1l0.3,0h18.7c0.3,0,1.4-0.1,1.4-1.8c0-2.3-1-5.3-2.3-7.1c-2.1-2.8-5.6-4.4-9.5-4.4
				c-4.4,0-8.4,1.6-11.6,4.6c-3.2,3-4.7,6.6-4.7,11.6c0,9,6.5,16,14.8,16c4.1,0,7.3-1.2,10.3-3.9c2.3-2.1,2.6-2.9,2.6-3.5
				C156.4,169.9,155.9,169.3,155.2,169.3 M136.7,152.4c1.7-2.6,4.5-4.1,7.4-4.1c1.5,0,3.5,0.3,4.8,1.8c0.9,1,1.4,2.4,1.4,3.5
				c0,1.1-0.5,1.7-1.8,2c-1.7,0.4-5.1,0.5-7,0.5h-5l-0.3,0c-0.2,0-0.9,0-1.1-0.1l0-0.1C135.3,155,136.2,153.1,136.7,152.4"/>
			<path class="st0" d="M177.3,146.1c-3.4,0-5.7,2.9-6.9,4.6v-3.2l0-0.1c0-0.4,0-0.9-0.4-1.3c-0.2-0.2-0.4-0.3-0.9-0.3
				c-0.7,0-1.2,0.5-1.5,0.9l-0.2,0.2c-0.9,1.2-3.5,2.8-4.8,3.2l-0.2,0.1c-0.6,0.2-1.6,0.5-1.6,1.7c0,0.7,0.6,1.2,1.4,1.2h0.8
				c0.7,0,1.1,0.2,1.3,0.3c0.2,0.2,0.4,1,0.4,3.6v0.2v12.5c0,0.4,0,0.7,0,1.1c0.1,2.6,0,3.5-2.2,3.7l-0.3,0c-0.6,0-2.1,0.1-2.1,1.6
				c0,0.6,0.4,1.3,1.6,1.3c1,0,2-0.1,2.9-0.1c1-0.1,1.9-0.1,2.9-0.1c0.9,0,1.8,0.1,2.7,0.1c1,0.1,2,0.1,3.1,0.1
				c0.9,0,1.4-0.6,1.4-1.4c0-1.4-1.5-1.5-2.1-1.5l-0.3,0c-2.1-0.2-2.2-1.1-2.2-3.7c0-0.4,0-0.7,0-1.1v-10.5v-0.3c0-2.5,0-4,1.3-5.9
				c0.6-0.8,1.6-2.1,2.6-2.1c0.5,0,0.7,0.3,1.2,0.9c0.5,0.7,1.3,1.6,2.7,1.6c1.9,0,3.3-1.4,3.3-3.3
				C181.5,147.8,179.7,146.1,177.3,146.1"/>
			<path class="st0" d="M184.1,168.3L184.1,168.3c0.1-0.7,0.2-2.1,1.5-2.1c1.3,0,1.6,1.5,1.9,3c0.5,2.7,1.2,6.1,6.2,6.1
				c3.3,0,6.9-2,6.9-5.8c0-3.1-2.1-4.5-5.5-5.7l-0.5-0.2c-4-1.4-9.4-3.2-9.4-8.8c0-2.6,1.2-4.9,3.5-6.7c2.1-1.6,4.6-2.3,7.8-2.3
				c1.6,0,5.1,0.5,6.7,1.2c1.3,0.6,1.2,2,1.1,3c0,0.2,0,0.4,0,0.6l0,0.3c0.1,1.2,0.2,2.6-0.5,3.3c-0.2,0.2-0.5,0.4-0.9,0.4
				c-1,0-1.4-1-1.8-2c-0.7-1.8-1.7-4.3-5.8-4.3c-2,0-5,1.5-5,4.2c0,3.1,2.9,4.2,6.3,5.4c4.3,1.6,9.2,3.3,9.2,9.7
				c0,6.5-6.3,10.4-12.5,10.4c-2.1,0-6-0.8-8.2-2.1c-1.2-0.6-1.2-1.7-1.2-2.7l0-0.3L184.1,168.3"/>
			<path class="st0" d="M217.6,141.3c2,0,3.4-1.6,3.4-4c0-1.9-1.2-3.9-3.3-3.9c-2,0-3.5,1.8-3.5,4
				C214.2,139.7,215.6,141.3,217.6,141.3"/>
			<path class="st0" d="M222.9,174.5l-0.3,0c-2.1-0.2-2.2-1.1-2.2-3.7c0-0.4,0-0.7,0-1.1v-22.2v-0.1c0-0.4,0-0.9-0.4-1.3
				c-0.2-0.2-0.4-0.3-0.9-0.3c-0.7,0-1.2,0.5-1.5,0.9l-0.2,0.2c-0.9,1.2-3.5,2.8-4.8,3.2l-0.2,0.1c-0.6,0.2-1.6,0.5-1.6,1.7
				c0,0.7,0.6,1.2,1.4,1.2h0.8c0.7,0,1.1,0.2,1.3,0.3c0.2,0.2,0.4,1,0.4,3.6l0,0.2v12.5c0,0.4,0,0.7,0,1.1c0.1,2.6,0,3.5-2.2,3.7
				l-0.3,0c-0.6,0-2.1,0.1-2.1,1.6c0,0.6,0.4,1.3,1.6,1.3c1,0,2-0.1,2.9-0.1c1-0.1,1.9-0.1,2.9-0.1c0.9,0,1.8,0.1,2.7,0.1
				c1,0.1,2,0.1,3,0.1c0.9,0,1.4-0.6,1.4-1.4C224.9,174.6,223.5,174.5,222.9,174.5"/>
			<path class="st0" d="M243.5,172.9c0-0.5-0.5-1.2-1.1-1.2c-0.4,0-0.7,0.3-1.3,0.7c-0.7,0.6-1.9,1.6-3.2,1.6
				c-0.7,0-1.2-0.2-1.6-0.6c-1.3-1.3-1.3-4.4-1.3-6.4v-0.1V150c0-0.6,0.1-0.8,0.1-0.8c0.1-0.1,0.5,0,0.8,0c0.2,0,0.4,0,0.7,0h3.5
				c0.2,0,0.5,0,0.7,0c0.6,0,1.1,0.1,1.5-0.3c0.4-0.4,0.4-0.9,0.4-1.4c0-0.4,0-1.6-1.3-1.6l-6.1,0c-0.2,0-0.3,0-0.3-0.1
				c0,0-0.1-0.2-0.1-0.6v-4.7c0-1.3-0.8-1.5-1.2-1.5c-0.8,0-1.1,0.8-1.3,1c-1.3,3-3,4.6-5.7,6.5l-0.1,0.1c-0.3,0.3-0.8,0.7-0.8,1.4
				c0,0.3,0.1,0.6,0.4,0.8c0.5,0.5,1.3,0.4,2.1,0.4l0.2,0c0.1,0,0.3,0,0.4,0c0.1,0,0.3,0,0.4,0c0,0.1,0,0.2,0,0.5v17.2l0,0.9
				c0,2.6-0.1,5.6,1.5,7.7c1.1,1.5,3,2.3,5,2.3c2.2,0,4.4-1,6.2-2.7C242.4,174.9,243.5,173.9,243.5,172.9"/>
			<path class="st0" d="M276.1,146.6h-9.8c-0.9,0-1.6,0.7-1.6,1.5c0,1.1,1.5,1.1,2.1,1.1c1.7,0,2.6,0.6,2.6,1.7
				c0,0.6-0.5,1.7-0.8,2.4l-0.1,0.1c0,0-4.5,11.4-6.2,15.7c-1.7-4.4-6.3-16.2-6.3-16.2l-0.1-0.1c-0.3-0.7-0.6-1.7-0.6-2.4
				c0-1.3,2.2-1.3,2.4-1.3c1.4,0,2.2-0.4,2.2-1.1c0-1-0.8-1.5-1.6-1.5h-11.9c-1.1,0-1.9,0.6-1.9,1.5c0,1.1,1.5,1.1,2.2,1.1
				c1.5,0,2.2,1.4,3,3.6l0.3,0.7l8.1,20.7c0.1,0.2,0.2,0.5,0.3,0.7c0.3,0.6,0.6,1.4,0.6,1.9c0,0.5-0.2,0.9-0.4,1.4
				c-0.1,0.1-0.1,0.3-0.1,0.4l-2.1,5.3c-0.1,0.2-0.1,0.3-0.2,0.5c-0.3,0.8-0.5,1.4-1,1.5c-0.6,0.1-1.4,0.1-2,0.1l-0.5,0
				c-2.7,0-2.7,2.3-2.7,3.3c0,0.9,0.2,1.5,0.7,2c0.9,0.8,2.2,0.8,3.3,0.8h0.1c2.7,0,3-0.7,3.7-3l0-0.1l12.4-31.5
				c0.5-1.3,2.1-5.4,3.3-7c0.5-0.7,1.7-1.2,2.2-1.2l0.3,0c0.6-0.1,1.7-0.2,1.7-1C277.7,147.2,277,146.6,276.1,146.6"/>
		</g>
		<path class="st0" d="M340.8,262.3c-29.6-8.9-47.6-37.7-49.2-55.1c0-0.2,0-72.9,0-72.9h101.3v72.4c-1.6,17.6-19.5,46.7-49.2,55.5
			l-1.4,0.3L340.8,262.3z"/>
		<path class="st1" d="M294.1,136.8c0,0,0,70.1,0,70.2c1.5,16.7,18.8,44.4,47.4,53l0.4,0.1l0.2,0l0.1,0l0.2,0l0.1,0l0.4-0.1
			c28.6-8.6,45.9-36.4,47.4-53.2v-70H294.1z"/>
		<path class="st2" d="M326.2,146.1v15.1h13.5l0.1-0.1c0,0,1-1.9,2.7-1.9c0,0,0,0,0,0c1.7,0,2.7,1.9,2.7,1.9l0.1,0.1h13.5v-15.1
			H326.2z"/>
		<path class="st3" d="M342.1,164.5h45.7v42.3c-1.3,14.5-17,42.3-45.6,50.9c-28.6-8.6-44.3-36.3-45.6-50.9v-42.3h45.7H342.1z"/>
		<path class="st3" d="M309.4,160.8l0.7-0.5c0.3-0.2,0.7-0.5,0.8-1.3c0.1-1.2-0.2-2.2-0.3-2.6l-4.2,0.3l0.9-1.4l-4.3-3.9l1.3-0.4
			l-0.7-2.8l2.7,0.6l0.5-1.4l1.6,1.8l-0.5-4.5l1.7,1.3l1.8-3.4l1.8,3.4l1.7-1.3l-0.5,4.5l1.6-1.8l0.5,1.4l2.7-0.6l-0.7,2.8l1.3,0.4
			l-4.3,3.9l0.9,1.4l-4.2-0.3c-0.1,0.4-0.3,1.4-0.3,2.6c0,0.8,0.5,1.1,0.8,1.3l0.7,0.5H309.4z"/>
		<path class="st3" d="M370.7,160.8l0.7-0.5c0.3-0.2,0.8-0.5,0.8-1.3c0-1.2-0.2-2.2-0.3-2.6l-4.2,0.3l0.9-1.4l-4.3-3.9l1.3-0.4
			l-0.8-2.8l2.7,0.6l0.5-1.4l1.6,1.8l-0.5-4.5l1.7,1.3l1.8-3.4l1.8,3.4l1.7-1.3l-0.5,4.5l1.6-1.8l0.5,1.4l2.7-0.6l-0.8,2.8l1.3,0.4
			l-4.3,3.9l0.9,1.4l-4.2-0.3c-0.1,0.4-0.3,1.4-0.3,2.6c0.1,0.9,0.5,1.1,0.8,1.3l0.7,0.5H370.7z"/>
		<path class="st3" d="M353.8,143.9c0,0-2.8,0.1-4.2-0.4c-2.8-1.1-5-1.1-6.4-0.1c-0.3,0.2-0.5,0.4-0.7,0.7c-0.2-0.2-0.3-0.4-0.5-0.5
			c0,0,0,0,0,0c-0.1,0-0.1-0.1-0.2-0.1c-1.4-1-3.6-0.9-6.4,0.2c-1.4,0.6-4.2,0.4-4.2,0.4l-2.2,0v15.1l0.2,0c0.1,0,0.9,0,1.9,0
			c1.2,0,2.5,0,2.9-0.1c0.5-0.1,1.3-0.4,2.2-0.7c1.8-0.7,4.1-1.5,5.5-1c0.2,0.1,0.4,0.2,0.6,0.4l0.2,0.2l0.2-0.2
			c0,0,0.1-0.1,0.2-0.1c0,0,0.1-0.1,0.1-0.1c0.1-0.1,0.2-0.1,0.3-0.2c1.4-0.6,3.7,0.3,5.5,1c0.9,0.3,1.7,0.6,2.2,0.7
			c0.8,0.1,4.7,0.1,4.9,0.1l0.2,0v-15.1L353.8,143.9z"/>
		<path class="st2" d="M342.4,144c-0.2-0.2-0.3-0.4-0.5-0.5c0,0,0,0,0,0c-0.1,0-0.1-0.1-0.2-0.1v13.9l0,0c0.2,0.1,0.4,0.2,0.6,0.4
			l0.2,0.2l0.2-0.2c0,0,0.1-0.1,0.2-0.1c0,0,0.1-0.1,0.1-0.1c0.1-0.1,0.2-0.1,0.3-0.2l0-13.9C342.9,143.5,342.6,143.7,342.4,144z"/>
		<path class="st2" d="M315.6,219.9c0,0-0.7,0.3-0.8,0.9c0,0-1.3-0.9-2.2,0.5C312.6,221.4,312.9,219,315.6,219.9"/>
		<path class="st2" d="M312.4,226c0,0-0.3,0.7,0.3,1.6c0,0-1.7,0.6-0.6,2.7C312.1,230.3,309.7,228,312.4,226"/>
		<path class="st2" d="M315.8,233.2c0,0-0.1,0.7,0.9,1.4c0,0-1.3,1.1,0.4,2.7C317.1,237.3,314,236,315.8,233.2"/>
		<path class="st2" d="M355.5,228.2c-0.4,0.2-0.8,0.6-0.7,1.8c0,0-1.6-1.7,0.6-2.9l0.2-0.1c0,0-0.3,0.7,0.1,1.2
			C355.8,228.1,355.6,228.2,355.5,228.2"/>
		<path class="st2" d="M369,219.9c0,0,0.7,0.3,0.8,0.9c0,0,1.3-0.9,2.2,0.5C372,221.4,371.7,219,369,219.9"/>
		<path class="st2" d="M372.2,226c0,0,0.3,0.7-0.3,1.6c0,0,1.7,0.6,0.6,2.7C372.5,230.3,374.9,228,372.2,226"/>
		<path class="st2" d="M368.8,233.2c0,0,0.1,0.7-0.9,1.4c0,0,1.3,1.1-0.4,2.7C367.5,237.3,370.6,236,368.8,233.2"/>
		<path class="st2" d="M339.5,228c-1.9,1.2-5.2,0.2-5.2,0.2s0.1,0.9-2.8,2c-4.4,1.8-8.9,6.2-3,12.8c0,0-2.5-7.4,1.4-9.1
			c0,0,3.3,3.2,8.2-3.1C339.1,229.5,339.5,228,339.5,228"/>
		<path class="st2" d="M328.7,201.8c-0.1,1.9-0.4,2-2.3,2.9c0,0-0.7-0.7-1.1-1.3c-1.1-2.1,0.8-5.2,0.8-5.2c-2,2.4-5,1.6-5,1.6
			c0.2-2.1,3.1-4,3.1-4c-2.7,0.5-4.8-0.9-4.8-0.9c0.7-1.4,3.5-3.1,3.5-3.1c-2.7-0.2-4.6-1.8-4.6-1.8c0.8-1.1,3.9-2.6,3.9-2.6
			c-1.5-0.8-2.9-3.3-2.9-3.3c2.1-1.1,4.5-0.8,4.5-0.8c-3.8-2.7,0.3-10.1,0.3-10.1c-0.6,11.2,8.3,8.3,7.6,14
			c-0.6,4.7-5.8,1.2-5.8,1.2c-0.9,6.5,2.9,7.1,2.9,7.1s-0.2,1.6-0.2,3.2C328.5,200.8,328.7,200.9,328.7,201.8"/>
		<path class="st2" d="M317,218.1c12.2-0.3,14.4-9.3,14.4-9.3c-1.2-1.7-1.4-2.5-1.4-2.5l-0.2-0.5c-0.8,0.9-3.9,2-3.9,2
			s-1.8-1.5-2.2-2.1c-1.2-1.7-1.4-2.9-1.4-2.9c-2.1,0.1-4-1.7-4-1.7c-0.1-1.8,0.7-3.4,0.7-3.4c-1.5-0.7-3-2.1-3-2.1
			c1-2,1.6-2.7,1.6-2.7c-2.4-1.8-2.4-2.9-2.4-2.9c0.6-1.5,2.7-3,2.7-3c-0.9-1.2-1.8-3.5-1.8-3.5c1.7-1.7,3.3-2.1,3.3-2.1
			c-0.3-0.9-0.2-1.8-0.1-2.8c0,0-14-7.1-15.6-11.7c0,0-0.7,4.1-0.4,6.7c0.2,2.3,4,6.2,13,12c-5.6-0.8-13.1-3.7-14.8-6.6
			c0,0,0,4.2,0.9,6.6c0.8,2,4.7,3.4,13.6,7.6c-4.4,2.3-12.1-0.3-14.3-2.4c0,0,1.2,3.6,2.7,5.9c0.9,1.4,4.6,3.8,13.1,2.6
			c-3.2,3.8-9.2,6.7-13.4,4.9c0,0,0.4,3.6,2.9,4.7c1.9,0.8,5.8,1.3,12-3.4c-3.8,9-12.9,6.2-12.9,6.2s2.2,3.6,4.6,4.8
			c2.1,1.1,6.5,0.2,13.7-7.3C324.4,209.2,324,215.9,317,218.1"/>
		<path class="st2" d="M332.8,211.3C332.8,211.3,332.8,211.3,332.8,211.3c0.3,0.5,2.4,3.4,3.1,5.4c0,0-4.8,4-3.9,8.3
			c0,0-1.6-3.2-0.5-5.6c0.1-0.2,0.6-1.6,0.6-1.6s-4.1,1.9-6.8,0.5c0,0,2.9,0.3,6.2-4.6C332.5,212,332.8,211.5,332.8,211.3
			L332.8,211.3z"/>
		<path class="st2" d="M351.8,211.3C351.8,211.3,351.8,211.3,351.8,211.3c-0.3,0.5-2.4,3.4-3.1,5.4c0,0,4.8,4,3.9,8.3
			c0,0,1.6-3.2,0.5-5.6c-0.1-0.2-0.6-1.6-0.6-1.6s4.1,1.9,6.8,0.5c0,0-2.9,0.3-6.2-4.6C352.1,212,351.8,211.5,351.8,211.3
			L351.8,211.3z"/>
		<path class="st2" d="M318.5,234.4c-0.5,0-0.9-0.2-1.2-0.4c-0.6-0.6-0.9-1.2-0.9-1.9c0.1-1.4,1.6-2.5,2.3-2.9l0.2-0.1
			c0.8-0.6,1.6-1.4,1.2-1.9c-0.1-0.2-0.4-0.3-0.7-0.3c-0.1,0-0.3,0-0.4,0c-0.8,0-1.6,0.3-2.2,0.8c-0.4,0.4-1,0.6-1.6,0.6
			c-0.5,0-0.9-0.1-1.3-0.4c-0.7-0.5-1-1.3-0.6-2.3c0.3-0.9,1-1.3,2.1-1.3c0.4,0,0.8,0.1,1.1,0.1c0.2,0,0.4,0.1,0.4,0.1l0.5,0
			c0.1,0,0.2,0,0.2-0.1c-0.1-0.2-0.4-0.5-0.7-0.6c-0.6-0.2-1.3-0.8-1.5-1.5c-0.1-0.3-0.1-0.8,0.4-1.3c0.3-0.4,0.8-0.6,1.3-0.6
			c0.2,0,0.4,0,0.6,0.1c0.7,0.3,1.2,1,1.2,1.8c0,0.5,0.3,1.6,0.9,1.9c0.2,0.1,0.5,0.2,0.7,0.2c2.1,0,4.6-3.2,4.6-3.2l0.2-0.3
			l0.3,0.1c0,0,1,0.3,2.3,0.3c0.3,0,0.5,0,0.8,0l0.7-0.1l-0.3,0.7c0,0.1-0.8,2.2-4.7,4c-0.3,0.1-0.4,0.3-0.4,0.3c0,0,0,0.1,0.2,0.2
			c0.2,0,0.3,0,0.5,0c0.2,0,0.4,0,0.5-0.1c0.3-0.2,0.8-0.4,1.3-0.4c0.2,0,0.5,0,0.7,0.1c0.4,0.2,0.7,0.6,0.9,1.2
			c0.2,0.7-0.1,1.4-0.7,1.8c-0.3,0.2-0.7,0.4-1.1,0.4c-0.4,0-0.8-0.1-1.1-0.3c0,0-0.5-0.3-0.7-0.5c-0.2-0.1-0.4-0.2-0.7-0.2
			c-0.5,0-1,0.1-1.2,0.2c-0.7,0.3-1.2,1.4-1.5,3.1c-0.3,1.5-1,2.5-2.1,2.9C319,234.3,318.7,234.4,318.5,234.4z"/>
		<path class="st2" d="M328.9,228.3c0.4,0.2,0.8,0.6,0.7,1.8c0,0,1.6-1.6-0.6-2.9l-0.2-0.1c0,0,0.3,0.7-0.1,1.2
			C328.6,228.2,328.7,228.3,328.9,228.3"/>
		<path class="st2" d="M345.1,228c1.9,1.2,5.2,0.2,5.2,0.2s-0.1,0.9,2.8,2c4.4,1.8,8.9,6.2,3,12.8c0,0,2.5-7.4-1.4-9.1
			c0,0-3.3,3.2-8.2-3.1C345.5,229.5,345.1,228,345.1,228"/>
		<path class="st2" d="M355.9,201.8c0.1,1.9,0.4,2,2.3,2.9c0,0,0.7-0.7,1.1-1.3c1.1-2.1-0.8-5.2-0.8-5.2c2,2.4,5,1.6,5,1.6
			c-0.2-2.1-3.1-4-3.1-4c2.7,0.5,4.8-0.9,4.8-0.9c-0.7-1.4-3.5-3.1-3.5-3.1c2.7-0.2,4.6-1.8,4.6-1.8c-0.8-1.1-3.9-2.6-3.9-2.6
			c1.5-0.8,2.9-3.3,2.9-3.3c-2.1-1.1-4.5-0.8-4.5-0.8c3.8-2.7-0.3-10.1-0.3-10.1c0.6,11.2-8.3,8.3-7.6,14c0.6,4.7,5.8,1.2,5.8,1.2
			c0.9,6.5-2.9,7.1-2.9,7.1s0.2,1.6,0.2,3.2C356.1,200.8,355.9,200.9,355.9,201.8"/>
		<path class="st2" d="M367.6,218.1c-12.2-0.3-14.4-9.3-14.4-9.3c1.2-1.7,1.4-2.5,1.4-2.5l0.2-0.5c0.8,0.9,3.9,2,3.9,2
			s1.8-1.5,2.2-2.1c1.2-1.7,1.4-2.9,1.4-2.9c2.1,0.1,4-1.7,4-1.7c0.1-1.8-0.7-3.4-0.7-3.4c1.5-0.7,3-2.1,3-2.1c-1-2-1.6-2.7-1.6-2.7
			c2.4-1.8,2.4-2.9,2.4-2.9c-0.6-1.5-2.7-3-2.7-3c0.9-1.2,1.8-3.5,1.8-3.5c-1.7-1.7-3.3-2.1-3.3-2.1c0.3-0.9,0.2-1.8,0.1-2.8
			c0,0,14-7.1,15.6-11.7c0,0,0.7,4.1,0.4,6.7c-0.2,2.3-4,6.2-13,12c5.5-0.8,13.1-3.7,14.8-6.6c0,0,0,4.2-0.9,6.6
			c-0.8,2-4.7,3.4-13.6,7.6c4.4,2.3,12.1-0.3,14.3-2.4c0,0-1.2,3.6-2.7,5.9c-0.9,1.4-4.6,3.8-13.1,2.6c3.2,3.8,9.2,6.7,13.4,4.9
			c0,0-0.4,3.6-2.9,4.7c-1.8,0.8-5.8,1.3-12-3.4c3.8,9,12.9,6.2,12.9,6.2s-2.2,3.6-4.6,4.8c-2.1,1.1-6.5,0.2-13.7-7.3
			C360.2,209.2,360.6,215.9,367.6,218.1"/>
		<path class="st2" d="M366.1,234.4c-0.2,0-0.5,0-0.7-0.1c-1.1-0.4-1.8-1.4-2.1-2.9c-0.3-1.7-0.9-2.8-1.5-3.1
			c-0.3-0.1-0.7-0.2-1.1-0.2c-0.3,0-0.5,0.1-0.7,0.2c-0.2,0.2-0.6,0.5-0.6,0.5c-0.4,0.2-0.8,0.3-1.1,0.3c-0.4,0-0.8-0.1-1.1-0.4
			c-0.6-0.4-0.8-1.1-0.7-1.8c0.1-0.6,0.4-1,0.9-1.2c0.2-0.1,0.4-0.1,0.7-0.1c0.5,0,1,0.2,1.3,0.4c0.1,0.1,0.3,0.1,0.5,0.1
			c0.3,0,0.5-0.1,0.5-0.1c0.1,0,0.1-0.1,0.1-0.1c0,0-0.1-0.1-0.4-0.3c-3.9-1.8-4.7-3.9-4.7-4l-0.3-0.7l0.7,0.1c0.3,0,0.5,0,0.8,0
			c1.3,0,2.3-0.3,2.3-0.3l0.3-0.1l0.2,0.3c0,0,2.5,3.2,4.6,3.2c0.3,0,0.5-0.1,0.7-0.2c0.6-0.3,0.9-1.4,0.9-1.9
			c0-0.8,0.5-1.5,1.2-1.8c0.2-0.1,0.4-0.1,0.6-0.1c0.5,0,0.9,0.2,1.3,0.6c0.5,0.5,0.4,1.1,0.4,1.3c-0.2,0.7-0.9,1.3-1.5,1.5
			c-0.3,0.1-0.6,0.4-0.7,0.6c0.1,0.1,0.1,0.1,0.2,0.1c0,0,0.4,0,0.4,0c0.2,0,0.3,0,0.5,0c0.3,0,0.7-0.1,1.1-0.1
			c1.1,0,1.8,0.4,2.1,1.3c0.3,0.9,0.1,1.8-0.6,2.3c-0.4,0.2-0.8,0.4-1.3,0.4c-0.6,0-1.2-0.2-1.6-0.6c-0.6-0.5-1.4-0.8-2.2-0.8
			c-0.1,0-0.3,0-0.4,0c-0.3,0.1-0.6,0.2-0.7,0.3c-0.4,0.6,0.5,1.4,1.2,1.9l0.2,0.1c0.7,0.5,2.2,1.5,2.3,2.9c0,0.7-0.3,1.3-0.9,1.9
			C367,234.2,366.6,234.4,366.1,234.4z"/>
		<path class="st2" d="M342.3,231.7c0.4-0.2,0.7-0.2,1.2-0.7c0,0,3.1,7.2,10.2,6.4c0,0-0.4,1.5-3.2,1.7c0,0,4.8,2.1,2,4.3
			c-1.8,1.4-3.2-2.6-3.2-2.6s-0.2,3.7-3.5,3.7c0,0,4.8-2.7-0.2-9.2c0.5,4.5-1.1,8.7-3.3,8.7c-2.2,0-3.8-4.2-3.3-8.7
			c-5.1,6.4-0.2,9.2-0.2,9.2c-3.3,0-3.5-3.7-3.5-3.7s-1.4,4-3.2,2.6c-2.8-2.2,2-4.3,2-4.3c-2.8-0.2-3.2-1.7-3.2-1.7
			c7.1,0.7,10.2-6.4,10.2-6.4C341.6,231.5,341.9,231.5,342.3,231.7"/>
		<path class="st2" d="M345.8,174.6c0.2-3,2.9-2.7,3.1-4.5c0.3-2.5-2.8-1.9-2.8-1.9s1.3,0,1.5,0.6c0.6,1.4-2,1.6-2,1.6
			c-3.1,0.8-4.1-1-5.2-1.2c-1.1-0.2-1.3,0.5-1.5,0.8c-0.2,0.3-4.9,0.5-5.9,1.5c-1.1,1.1-1,2.5-0.2,3.4c0,0,0.4-1.6,2.2-1.7
			c1.7-0.1,4.7,2.2,5.4,3.5c-0.8,0-7.5,0.4-8.4-0.2c-0.6-0.4-1.2-1.2-1.2-1.7c0,0-0.4,1.7,0.5,2.2c0.8,0.5,1.1,0.4,1.6,0.5
			c0.5,0,7-0.2,7.7-0.2c-0.2,0.5,0,1.7-1.4,1.8l-5.4,0c0,0-0.2,1.3,1.9,0.7c0.4-0.1,1.8-0.5,2.3,0.2c0.3,0.5,1.2,2.1-1.9,2.6
			c0,0,4.6,0.3,5-3.6c0,0,0.4,2.9,1.3,2.9c1,0,1-3,1-3c1.6,4.1,5.6,4.4,5.6,4.4C345.6,181.1,345.8,175.1,345.8,174.6z M341.4,172
			l-0.6,0.1c0.1,0.1,0.2,0.3,0.2,0.5c0,0.5-0.4,0.8-0.9,0.8c-0.5,0-0.9-0.4-0.9-0.8l0.1-0.4l-2,0.1l3.8-1.4l0.2-0.1l0.1,0.2l0.2,0.8
			l0.1,0.2L341.4,172z"/>
		<path class="st2" d="M348.4,185.8c-1.2-0.1-3.5-0.6-4.3-1.6c0,0-0.5,0.8-1.7,1.2c-1.2-0.3-1.6-1.1-1.6-1.1c-1,1-3.1,1.5-4.4,1.7
			c-2.8,7.1-8.9,11.4-3.3,21.1c5.8,10,10.1,11.4,1.9,18.3c0,0,5.2,1.4,6.4-3c0,0-0.2,4.7,1,6c1.2-1.3,1-6.1,1-6.1
			c1.2,4.4,6.4,3,6.4,3c-8.2-6.9-3.9-8.3,1.9-18.3C357.2,197.2,351.2,192.9,348.4,185.8z M350,200.4c-0.1,0.2-0.2,0.4-0.3,0.6
			c-0.9,1.2-2.3,1.4-3.3,1c-0.6-0.2-0.8-0.4-1-0.5l-0.1,0l-0.4-0.3v3.3l0.4-0.3l0.5,0.7l0,0.1c0.2,0.2,0.3,0.4,0.5,1
			c0.4,1,0.2,2.4-1,3.2c-0.2,0.1-0.4,0.2-0.6,0.3c-0.2,0.7-0.6,1.4-2,2l-0.4,0.2l-0.4-0.2c-1.3-0.6-1.7-1.4-2-2
			c-0.2-0.1-0.4-0.2-0.6-0.3c-1.3-0.9-1.4-2.2-1-3.2c0.2-0.6,0.4-0.8,0.5-1l0-0.1l0.5-0.7l0.4,0.3v-3.3c-0.2,0.1-0.4,0.3-0.4,0.3
			l-0.1,0c-0.2,0.2-0.4,0.3-1,0.5c-1,0.4-2.5,0.2-3.3-1c-0.1-0.2-0.2-0.4-0.3-0.6c-0.7-0.2-1.4-0.6-2.1-1.9l-0.2-0.4l0.2-0.4
			c0.7-1.3,1.4-1.7,2.1-1.9c0.1-0.2,0.2-0.4,0.3-0.6c0.9-1.2,2.3-1.4,3.3-1c0.4,0.1,0.6,0.3,0.8,0.4l-0.2-0.3l0-0.1
			c-0.2-0.2-0.3-0.4-0.5-1c-0.4-1-0.2-2.4,1-3.2c0.2-0.1,0.4-0.2,0.6-0.3c0.2-0.7,0.6-1.4,2-2l0.4-0.2l0.4,0.2c1.3,0.6,1.7,1.4,2,2
			c0.2,0.1,0.4,0.2,0.6,0.3c1.3,0.9,1.4,2.2,1,3.2c-0.2,0.6-0.4,0.8-0.5,1l0,0.1l-0.2,0.3c0.2-0.1,0.4-0.2,0.8-0.3
			c1-0.4,2.5-0.2,3.3,1c0.1,0.2,0.2,0.4,0.3,0.6c0.7,0.2,1.4,0.6,2.1,1.9l0.2,0.4l-0.2,0.4C351.4,199.8,350.6,200.2,350,200.4z"/>
		<path class="st2" d="M350.1,198c0,0-0.7-1-1.8-0.7c0.1-0.3,0.2-0.7-0.1-1.1c-0.4-0.6-1.1-0.5-1.3-0.4l-0.2,0.1l0.1,0.1
			c0,0,0.1,0.2,0.1,0.4c0,0.2,0,0.5-0.4,0.8c-0.2,0.1-0.7,0.2-0.9,0.2h-2.4v-3.5c0-0.2,0-0.7,0.2-0.9c0.3-0.4,0.6-0.4,0.9-0.4
			c0.2,0,0.4,0.1,0.4,0.1l0.1,0.1l0.1-0.2c0.1-0.3,0.2-0.9-0.4-1.3c-0.4-0.3-0.8-0.2-1.1-0.1c0.3-1-0.8-1.7-0.8-1.7l0,0h0h0l0,0
			c0,0-1,0.7-0.8,1.7c-0.3-0.1-0.7-0.2-1.1,0.1c-0.6,0.4-0.5,1-0.4,1.3l0.1,0.2l0.1-0.1c0,0,0.2-0.1,0.4-0.1c0.2,0,0.5,0,0.9,0.4
			c0.1,0.2,0.2,0.7,0.2,0.9l0,0v0v3.5h-2.5c-0.2,0-0.7,0-0.9-0.2c-0.4-0.3-0.4-0.6-0.4-0.8c0-0.2,0.1-0.4,0.1-0.4l0.1-0.1l-0.2-0.1
			c-0.3-0.1-0.9-0.2-1.3,0.4c-0.3,0.4-0.2,0.8-0.1,1.1c-1-0.2-1.8,0.7-1.8,0.7l0,0v0v0l0,0c0,0,0.7,1,1.8,0.7
			c-0.1,0.3-0.2,0.7,0.1,1.1c0.4,0.6,1.1,0.5,1.3,0.4l0.2-0.1l-0.1-0.1c0,0-0.1-0.2-0.1-0.4c0-0.2,0-0.5,0.4-0.8
			c0.2-0.1,0.7-0.2,0.9-0.2l0,0h0h2.5v6.3l0,0v0c0,0.2,0,0.7-0.2,0.9c-0.3,0.4-0.6,0.4-0.9,0.4c-0.2,0-0.4-0.1-0.4-0.1l-0.1-0.1
			l-0.1,0.2c-0.1,0.3-0.2,0.9,0.4,1.3c0.4,0.3,0.8,0.2,1.1,0.1c-0.3,1,0.8,1.7,0.8,1.7l0,0h0h0l0,0c0,0,1-0.7,0.8-1.7
			c0.3,0.1,0.7,0.2,1.1-0.1c0.6-0.4,0.5-1,0.4-1.3l-0.1-0.2l-0.1,0.1c0,0-0.2,0.1-0.4,0.1c-0.2,0-0.6,0-0.9-0.4
			c-0.2-0.2-0.2-0.7-0.2-0.9v-6.3h2.4l0,0v0c0.2,0,0.7,0,0.9,0.2c0.4,0.3,0.4,0.6,0.4,0.8c0,0.2-0.1,0.4-0.1,0.4l-0.1,0.1l0.2,0.1
			c0.3,0.1,0.9,0.2,1.3-0.4c0.3-0.4,0.2-0.8,0.1-1.1c1,0.2,1.8-0.7,1.8-0.7l0,0L350.1,198L350.1,198L350.1,198z"/>
	</g>
	<g>
		<path class="st3" d="M639.3,216.1c-2.6,0-5.3-0.1-7.9-0.3c-53.8-4.3-94.1-51.5-89.8-105.3c2.1-26.1,14.2-49.8,34.1-66.7
			c19.9-17,45.2-25.2,71.3-23.1c21.2,1.7,40.8,10,56.8,24c3.3,2.9,3.6,7.9,0.7,11.2c-2.9,3.3-7.9,3.6-11.2,0.7
			c-13.4-11.7-29.8-18.7-47.6-20.1c-21.8-1.7-43.1,5.1-59.8,19.4c-16.7,14.2-26.8,34.1-28.6,55.9c-3.6,45.1,30.2,84.7,75.3,88.3
			c10,0.8,19.9-0.2,29.4-3c4.2-1.2,8.6,1.2,9.8,5.4c1.2,4.2-1.2,8.6-5.4,9.8C657.6,214.9,648.5,216.1,639.3,216.1z"/>
		<g>
			<path class="st0" d="M611.5,177.3l-9.3-43.5h10.1l4.3,22c0.1,0.5,0.2,0.9,0.2,1.2c0,0.4,0.1,0.8,0.2,1.4c0.1-0.5,0.1-1,0.2-1.4
				c0.1-0.4,0.1-0.9,0.2-1.3l5.2-21.9h8.6l5.2,21.9c0.1,0.4,0.2,0.8,0.2,1.3c0.1,0.5,0.1,1,0.2,1.6c0.1-0.5,0.2-1,0.2-1.4
				c0.1-0.4,0.1-0.8,0.2-1.1l4.3-22.2h10.1l-9.4,43.5H633l-5.9-23.7c-0.1-0.2-0.1-0.5-0.2-0.8c0-0.3-0.1-0.8-0.2-1.3
				c-0.1,0.6-0.1,1.1-0.2,1.4c-0.1,0.3-0.1,0.5-0.1,0.8l-5.7,23.8H611.5z"/>
			<path class="st0" d="M665.9,178c-4.6,0-8.2-1.5-10.8-4.4c-2.6-3-4-7-4-12.2c0-3.4,0.6-6.4,1.8-8.8c1.2-2.5,2.9-4.4,5.1-5.8
				c2.2-1.4,4.8-2,7.8-2c3,0,5.6,0.7,7.8,2c2.2,1.4,3.9,3.3,5.1,5.8s1.8,5.4,1.8,8.9c0,3.4-0.6,6.4-1.8,8.9c-1.2,2.5-2.9,4.4-5,5.7
				C671.5,177.4,668.9,178,665.9,178z M665.9,169c1.7,0,3-0.7,4-2c0.9-1.3,1.4-3.2,1.4-5.6s-0.5-4.3-1.4-5.6c-0.9-1.3-2.3-2-3.9-2
				c-1.7,0-3,0.7-4,2.1c-1,1.4-1.4,3.2-1.4,5.6s0.5,4.2,1.4,5.6C662.9,168.3,664.2,169,665.9,169z"/>
			<path class="st0" d="M685.4,177.3v-31.8h9.3v2.9c0.5-1,1.3-1.8,2.6-2.6s2.4-1.1,3.5-1.1c2.5,0,4.5,0.9,6.2,2.8l-1.2,8.5
				c-1-0.8-1.9-1.4-2.7-1.8c-0.9-0.3-1.8-0.5-2.9-0.5c-1.2,0-2.2,0.2-3,0.7c-0.8,0.5-1.4,1.2-1.9,2.2c-0.4,1-0.6,2.2-0.6,3.6v17
				H685.4z"/>
			<path class="st0" d="M711.2,177.3v-40.7l9.3-4.2v44.9H711.2z"/>
			<path class="st0" d="M738.4,178c-4.1,0-7.3-1.5-9.6-4.4c-2.3-2.9-3.4-7-3.4-12.3c0-3.3,0.6-6.1,1.7-8.6c1.1-2.5,2.7-4.5,4.7-5.9
				c2-1.4,4.3-2.1,6.9-2.1c2.7,0,4.7,1.1,6.2,3.2v-11.4l9.3-4.2v44.9h-9.3v-2.7C743.6,176.9,741.5,178,738.4,178z M740,169
				c1.2,0,2.2-0.1,2.9-0.4c0.7-0.3,1.3-0.7,1.8-1.4v-11.4c-0.5-0.6-1.2-1.1-2.1-1.5c-0.9-0.4-1.7-0.5-2.7-0.5c-1.7,0-3,0.6-4,1.9
				c-0.9,1.3-1.4,3.2-1.4,5.6c0,1.7,0.2,3.1,0.6,4.3c0.4,1.1,1,2,1.8,2.5C737.8,168.7,738.8,169,740,169z"/>
			<g>
				<path class="st0" d="M602.2,119.1V75.5h21c3.6,0,6.5,0.6,8.6,1.7c2.1,1.2,3.6,2.6,4.5,4.4c0.9,1.8,1.4,3.7,1.4,5.7
					c0,1.9-0.3,3.7-1,5.3c-0.7,1.6-1.9,2.9-3.8,3.7c1.5,0.6,2.7,1.4,3.6,2.5c0.9,1.1,1.6,2.3,2,3.5s0.6,2.5,0.6,3.6
					c0,1.6-0.3,3.1-0.8,4.7c-0.5,1.6-1.4,3-2.6,4.2c-1.2,1.3-2.7,2.3-4.6,3c-1.9,0.8-4.3,1.1-7,1.1H602.2z M612,92.4h10.3
					c1.9,0,3.2-0.3,4.1-1c0.9-0.7,1.3-1.6,1.3-2.8c0-0.6-0.1-1.2-0.3-1.8c-0.2-0.6-0.6-1.1-1.2-1.4c-0.6-0.4-1.6-0.6-2.8-0.6H612
					V92.4z M612,109.8h12.4c1.2,0,2.1-0.2,2.8-0.7c0.7-0.4,1.2-1,1.4-1.6c0.3-0.6,0.4-1.2,0.4-1.8c0-0.7-0.2-1.4-0.5-2.1
					c-0.3-0.7-0.9-1.3-1.9-1.7c-0.9-0.5-2.3-0.7-4-0.7H612V109.8z"/>
				<path class="st0" d="M643.7,119.1V87.3h9.3v2.9c0.5-1,1.3-1.8,2.6-2.6c1.2-0.7,2.4-1.1,3.5-1.1c2.5,0,4.5,0.9,6.2,2.8l-1.2,8.5
					c-1-0.8-1.9-1.4-2.7-1.8c-0.9-0.3-1.8-0.5-2.9-0.5c-1.2,0-2.2,0.2-3,0.7s-1.4,1.2-1.9,2.2c-0.4,1-0.6,2.2-0.6,3.6v17H643.7z"/>
				<path class="st0" d="M674.3,84.5c-1.5,0-2.7-0.5-3.8-1.6c-1.1-1.1-1.6-2.3-1.6-3.8c0-1.4,0.5-2.7,1.6-3.7c1-1,2.3-1.5,3.8-1.5
					c1.5,0,2.8,0.5,3.8,1.5c1,1,1.5,2.2,1.5,3.7c0,1.5-0.5,2.8-1.6,3.8C677.1,84,675.8,84.5,674.3,84.5z M669.7,119.1V87.3h9.3v31.8
					H669.7z"/>
				<path class="st0" d="M694.4,132.6l-5-8.1l0.7-0.1l1.7-0.2c3.2-0.2,5.6-0.6,7.1-0.9c1.6-0.4,2.6-0.9,3.2-1.6
					c0.5-0.7,0.8-1.6,0.8-2.8v-1c-1.4,1.2-3.4,1.8-5.9,1.8c-2.9,0-5.3-0.7-7.3-2c-2-1.3-3.5-3.2-4.6-5.7c-1.1-2.5-1.6-5.5-1.6-9
					c0-3.3,0.6-6.3,1.7-8.7c1.1-2.5,2.7-4.4,4.7-5.8c2-1.4,4.4-2.1,7.1-2.1c1.3,0,2.4,0.2,3.4,0.5c1,0.3,1.8,0.8,2.5,1.5v-1.2h9.3
					v27.6c0,3.2-0.2,5.8-0.7,7.9c-0.5,2.1-1.3,3.8-2.4,5.1c-1.1,1.3-2.6,2.3-4.6,2.9c-1.9,0.7-4.4,1.1-7.3,1.4l-2.1,0.2L694.4,132.6
					z M698.4,110.8c0.9,0,1.7-0.1,2.5-0.4c0.7-0.3,1.4-0.7,2.1-1.3V97.4c-0.5-0.6-1.1-1-1.9-1.4c-0.8-0.3-1.6-0.5-2.4-0.5
					c-1.9,0-3.3,0.6-4.3,1.9c-1,1.3-1.5,3.2-1.5,5.7c0,1.7,0.2,3.1,0.6,4.2c0.4,1.1,1,2,1.9,2.6
					C696.2,110.5,697.2,110.8,698.4,110.8z"/>
				<path class="st0" d="M718.3,119.1V78.4l9.3-4.3v16.1c1-1.2,2.3-2.1,3.7-2.8c1.5-0.6,3.1-0.9,5-0.9c2.2,0,4.2,0.5,5.8,1.4
					c1.6,0.9,2.9,2.3,3.8,4c0.9,1.8,1.3,3.8,1.3,6.2v20.8H738v-16.2c0-2.7-0.4-4.6-1.1-5.6c-0.7-1.1-2-1.6-3.8-1.6
					c-1.9,0-3.3,0.6-4.1,1.7c-0.9,1.1-1.3,3-1.3,5.4v16.4H718.3z"/>
				<path class="st0" d="M763.6,119.8c-2.8,0-4.8-0.7-6.1-2.2c-1.3-1.5-2-3.6-2-6.6V95.5h-4.3v-8.2h4.3v-8.7l9.3-4.4v13.1h6.8v8.2
					h-6.8v14.4c0,0.6,0.2,1.1,0.5,1.4c0.3,0.3,0.8,0.5,1.5,0.5c1.6,0,3.3-0.4,5.3-1.2l-1.1,7.8c-1,0.5-2.1,0.8-3.3,1.1
					C766.4,119.7,765.1,119.8,763.6,119.8z"/>
				<path class="st0" d="M789.3,119.8c-3.2,0-5.9-0.7-8.1-2c-2.3-1.3-4-3.2-5.2-5.7c-1.2-2.5-1.8-5.5-1.8-9c0-3.4,0.6-6.3,1.9-8.8
					c1.2-2.5,3-4.4,5.3-5.8c2.3-1.4,5-2,8.1-2c2.7,0,5.1,0.5,7.3,1.6c2.2,1.1,3.9,2.7,5.2,5c1.3,2.2,1.9,5,1.9,8.4
					c0,0.6,0,1.3,0,2.2c0,0.9-0.1,1.7-0.2,2.6h-20.2c0,1.1,0.2,2.1,0.7,3c0.5,0.8,1.2,1.5,2.1,1.9c0.9,0.5,2,0.7,3.2,0.7
					c1.6,0,3-0.3,4.1-0.8c1.1-0.5,2.1-1.4,3.2-2.6l5.4,5.4c-1.5,1.8-3.3,3.2-5.3,4.3C794.5,119.3,792.1,119.8,789.3,119.8z
					 M783.3,99.3h11.4c-0.2-1.1-0.5-2-1-2.7c-0.5-0.7-1.1-1.3-1.9-1.6c-0.8-0.4-1.7-0.5-2.9-0.5c-1.5,0-2.8,0.4-3.8,1.3
					C784.2,96.6,783.6,97.8,783.3,99.3z"/>
				<path class="st0" d="M808.6,119.1V87.3h9.3v2.9c0.5-1,1.3-1.8,2.6-2.6c1.2-0.7,2.4-1.1,3.5-1.1c2.5,0,4.5,0.9,6.2,2.8l-1.2,8.5
					c-1-0.8-1.9-1.4-2.7-1.8c-0.9-0.3-1.8-0.5-2.9-0.5c-1.2,0-2.2,0.2-3,0.7c-0.8,0.5-1.4,1.2-1.9,2.2c-0.4,1-0.6,2.2-0.6,3.6v17
					H808.6z"/>
			</g>
		</g>
	</g>
	<rect x="469.9" class="st0" width="2.5" height="260.9"/>
</g>
</svg>
