<svg xmlns="http://www.w3.org/2000/svg" xmlns:xlink="http://www.w3.org/1999/xlink"
    viewBox="0 0 585.73 123.53">
    <defs>
        <style>
            .cls-1{fill:none;}.cls-2{fill:#495965;}.cls-3{clip-path:url(#clip-path);}.cls-4{fill:#fec057;}.cls-5{fill:#7a003c;}</style>
        <clipPath id="clip-path" transform="translate(0 0)">
            <rect class="cls-1" width="146.13" height="123.53" />
        </clipPath>
    </defs>
    <g id="Layer_2" data-name="Layer 2">
        <g id="Layer_1-2" data-name="Layer 1">
            <path class="cls-2"
                d="M149.86,7.61h10c4.14,0,7.1,1.48,8.72,4.94,1.31,2.74,1.44,9.22,1.44,10.25,0,6.92-.63,10.93-2,13.08-1.75,2.79-5,4.18-10.7,4.18h-7.46ZM154,36.47h3.91c5.75,0,7.87-2.16,7.87-9.71V20.2c0-6.57-2-9-6.34-9H154Z"
                transform="translate(0 0)" />
            <path class="cls-2" d="M174.85,7.61H179v4h-4.14Zm3.92,32.45h-3.69V17.36h3.69Z"
                transform="translate(0 0)" />
            <path class="cls-2"
                d="M195.44,17.36h3.69v25c0,5.08-3.37,6.29-8.36,6.29-3.78,0-7.2-1.89-6.88-6.07H188a3.16,3.16,0,0,0,3.46,3.29A3.63,3.63,0,0,0,195.44,42V37.23h-.13a5.68,5.68,0,0,1-5,2.83c-6.16,0-7.37-5.3-7.37-12,0-10.43,5.26-11.11,7.1-11.11a5.47,5.47,0,0,1,5.3,3.24h.09ZM191.13,20c-4.18,0-4.32,5-4.32,8.05,0,7.28,1.67,9,4.41,9,4.45,0,4.31-5.26,4.31-8.41C195.53,25.23,195.76,20,191.13,20Z"
                transform="translate(0 0)" />
            <path class="cls-2" d="M203.85,7.61H208v4h-4.14Zm3.91,32.45h-3.68V17.36h3.68Z"
                transform="translate(0 0)" />
            <path class="cls-2"
                d="M214,17.36V13l3.69-1.66v6h4.94v2.79H217.7V34c0,1.44,0,3.28,3.37,3.28.27,0,.85-.09,1.66-.18V40c-1.21.08-2.42.36-3.64.36-3.51,0-5.08-1.44-5.08-4.05V20.15h-3.73V17.36Z"
                transform="translate(0 0)" />
            <path class="cls-2"
                d="M237,36.78h-.09a5.56,5.56,0,0,1-5.71,3.73c-4.81,0-6.21-3.1-6.21-7.46,0-6.88,6.75-7.19,11.92-7.06.09-3,.13-6.29-3.82-6.29-2.48,0-3.78,1.66-3.56,4.05h-4c.18-5.08,2.88-6.84,7.69-6.84,5.84,0,7.37,3,7.37,6.84V34.67a35.74,35.74,0,0,0,.45,5.39h-4Zm-8.32-3.46c0,2.2,1.08,4.18,3.55,4.18,2.25,0,5-1.39,4.68-8.72C233.43,28.83,228.71,28.51,228.71,33.32Z"
                transform="translate(0 0)" />
            <path class="cls-2" d="M249.48,40.06h-3.69V7.61h3.69Z" transform="translate(0 0)" />
            <path class="cls-2" d="M280,7.61V11.2h-8.54V40.06h-4.13V11.2h-8.55V7.61Z"
                transform="translate(0 0)" />
            <path class="cls-2"
                d="M283.51,20.78h.09c1.52-3.46,3.41-3.87,7-3.87v3.82l-1-.13a7.42,7.42,0,0,0-1-.09c-4.09,0-5.12,3.1-5.12,6.16V40.06h-3.69V17.36h3.69Z"
                transform="translate(0 0)" />
            <path class="cls-2"
                d="M305,36.78H305a5.55,5.55,0,0,1-5.71,3.73c-4.81,0-6.2-3.1-6.2-7.46,0-6.88,6.74-7.19,11.91-7.06.09-3,.14-6.29-3.82-6.29-2.47,0-3.78,1.66-3.55,4.05h-4c.18-5.08,2.87-6.84,7.68-6.84,5.85,0,7.38,3,7.38,6.84V34.67a37.09,37.09,0,0,0,.44,5.39h-4Zm-8.32-3.46c0,2.2,1.08,4.18,3.55,4.18,2.25,0,5-1.39,4.68-8.72C301.44,28.83,296.72,28.51,296.72,33.32Z"
                transform="translate(0 0)" />
            <path class="cls-2"
                d="M326.17,40.06V24.33c0-2.43-.86-4.4-4-4.4-4.05,0-4.63,3.59-4.63,6.69V40.06h-3.69v-18c0-1.57-.09-3.14-.22-4.72h3.91v2.92h.18c1.44-2.56,3.15-3.37,6.07-3.37,4.85,0,6.07,2.93,6.07,7.42V40.06Z"
                transform="translate(0 0)" />
            <path class="cls-2"
                d="M341.41,40.51c-4.9,0-8-2.15-7.82-7.37h4.18c0,1.3.05,4.36,3.78,4.36,2.2,0,3.9-1.12,3.9-3.46,0-4.05-11.32-4.13-11.32-10.92,0-2.39,1.44-6.21,7.82-6.21,4.05,0,7.51,1.94,7.2,6.43h-4.1c.05-2.38-1.21-3.64-3.55-3.64-2,0-3.51,1.08-3.51,3.06,0,4,11.33,3.91,11.33,10.83C349.32,38.58,345.91,40.51,341.41,40.51Z"
                transform="translate(0 0)" />
            <path class="cls-2"
                d="M354.84,17.36V13c0-4.59,3.24-5.49,6.52-5.49a9.56,9.56,0,0,1,1.76.14v2.65c-3.91-.27-4.58,1.39-4.58,3.24v3.86h4.58v2.79h-4.58V40.06h-3.7V20.15h-3.5V17.36Z"
                transform="translate(0 0)" />
            <path class="cls-2"
                d="M365,29.05c0-6.65.76-12.14,8.63-12.14s8.63,5.49,8.63,12.14c0,10-3.82,11.46-8.63,11.46S365,39.08,365,29.05Zm13.39-1.57c0-6.21-1.93-7.55-4.76-7.55s-4.77,1.34-4.77,7.55c0,7.37.95,10,4.77,10S378.4,34.85,378.4,27.48Z"
                transform="translate(0 0)" />
            <path class="cls-2"
                d="M390.27,20.78h.09c1.53-3.46,3.42-3.87,7-3.87v3.82l-1-.13a7.43,7.43,0,0,0-1-.09c-4.09,0-5.13,3.1-5.13,6.16V40.06h-3.68V17.36h3.68Z"
                transform="translate(0 0)" />
            <path class="cls-2"
                d="M411.76,40.06V24.33c0-2.29-.63-4.4-3.59-4.4A4.25,4.25,0,0,0,405,21.45a6.75,6.75,0,0,0-.86,3.33V40.06h-3.69v-18c0-1.57-.09-3.14-.22-4.72h3.91V20.2h.09c1.08-2.43,3-3.29,5.66-3.29,2.07,0,4.46.86,5.31,2.93,1.26-2.43,3.32-2.93,5.39-2.93,2.39,0,6.21.54,6.21,5.89V40.06h-3.69V24.33c0-2.29-.63-4.4-3.59-4.4a3.33,3.33,0,0,0-2.79.85c-1.08.9-1.26,3.15-1.26,4V40.06Z"
                transform="translate(0 0)" />
            <path class="cls-2"
                d="M443,36.78h-.09a5.55,5.55,0,0,1-5.71,3.73c-4.81,0-6.2-3.1-6.2-7.46,0-6.88,6.74-7.19,11.91-7.06.09-3,.14-6.29-3.82-6.29-2.47,0-3.78,1.66-3.55,4.05h-4c.18-5.08,2.88-6.84,7.68-6.84,5.85,0,7.38,3,7.38,6.84V34.67a35.74,35.74,0,0,0,.45,5.39H443Zm-8.32-3.46c0,2.2,1.09,4.18,3.56,4.18,2.24,0,5-1.39,4.67-8.72C439.41,28.83,434.68,28.51,434.68,33.32Z"
                transform="translate(0 0)" />
            <path class="cls-2"
                d="M453.12,17.36V13l3.68-1.66v6h4.95v2.79H456.8V34c0,1.44,0,3.28,3.38,3.28.27,0,.85-.09,1.66-.18V40c-1.22.08-2.43.36-3.64.36-3.51,0-5.08-1.44-5.08-4.05V20.15h-3.73V17.36Z"
                transform="translate(0 0)" />
            <path class="cls-2" d="M464.22,7.61h4.14v4h-4.14Zm3.91,32.45h-3.69V17.36h3.69Z"
                transform="translate(0 0)" />
            <path class="cls-2"
                d="M472.27,29.05c0-6.65.76-12.14,8.63-12.14s8.63,5.49,8.63,12.14c0,10-3.82,11.46-8.63,11.46S472.27,39.08,472.27,29.05Zm13.39-1.57c0-6.21-1.93-7.55-4.76-7.55s-4.76,1.34-4.76,7.55c0,7.37.94,10,4.76,10S485.66,34.85,485.66,27.48Z"
                transform="translate(0 0)" />
            <path class="cls-2"
                d="M506.08,40.06V24.33c0-2.43-.86-4.4-4-4.4-4,0-4.62,3.59-4.62,6.69V40.06h-3.69v-18c0-1.57-.09-3.14-.23-4.72h3.92v2.92h.17c1.44-2.56,3.15-3.37,6.07-3.37,4.86,0,6.07,2.93,6.07,7.42V40.06Z"
                transform="translate(0 0)" />
            <path class="cls-2"
                d="M153.82,76.7V91.62h-4.14V59.17h11.2c5.75,0,7.77,4,7.77,8.09,0,3.82-2.11,6.74-5.93,7.41v.1c3.73.58,5.08,1.84,5.3,8.35a49.6,49.6,0,0,0,1.13,8.5h-4.32c-1.17-2.24-.9-6.47-1.26-10.79-.31-4-3.5-4.13-4.9-4.13Zm0-3.6H160c3,0,4.41-2.56,4.41-5.39,0-2.34-1.17-4.95-4.36-4.95h-6.25Z"
                transform="translate(0 0)" />
            <path class="cls-2"
                d="M176.52,81.46c0,6.34,1.71,7.6,4.58,7.6,2.52,0,3.82-2,4-4.32h4.05c-.05,5-3.15,7.33-7.92,7.33s-8.63-1.43-8.63-11.46c0-6.66.77-12.14,8.63-12.14,6.48,0,8.1,3.55,8.1,11.06v1.93Zm8.86-2.78c0-6.61-1.85-7.42-4.55-7.42-2.33,0-4.27,1.12-4.31,7.42Z"
                transform="translate(0 0)" />
            <path class="cls-2"
                d="M200.57,92.07c-4.9,0-7.95-2.15-7.82-7.37h4.18c0,1.3,0,4.36,3.78,4.36,2.2,0,3.91-1.12,3.91-3.46,0-4-11.33-4.14-11.33-10.93,0-2.38,1.44-6.2,7.82-6.2,4,0,7.51,1.94,7.19,6.43h-4.09c0-2.39-1.21-3.64-3.55-3.64-2,0-3.51,1.08-3.51,3,0,4,11.33,3.91,11.33,10.84C208.48,90.14,205.07,92.07,200.57,92.07Z"
                transform="translate(0 0)" />
            <path class="cls-2"
                d="M215.9,81.46c0,6.34,1.71,7.6,4.58,7.6,2.52,0,3.82-2,4-4.32h4.05c-.05,5-3.15,7.33-7.92,7.33s-8.63-1.43-8.63-11.46c0-6.66.77-12.14,8.63-12.14,6.48,0,8.09,3.55,8.09,11.06v1.93Zm8.85-2.78c0-6.61-1.84-7.42-4.54-7.42-2.34,0-4.27,1.12-4.31,7.42Z"
                transform="translate(0 0)" />
            <path class="cls-2"
                d="M244.58,88.34h-.09a5.55,5.55,0,0,1-5.71,3.73c-4.81,0-6.2-3.1-6.2-7.46,0-6.88,6.74-7.19,11.91-7.06.09-3,.14-6.29-3.82-6.29-2.47,0-3.78,1.66-3.55,4h-4c.18-5.08,2.88-6.83,7.68-6.83,5.85,0,7.38,3,7.38,6.83V86.23a35.74,35.74,0,0,0,.45,5.39h-4Zm-8.32-3.46c0,2.2,1.08,4.18,3.55,4.18,2.25,0,5-1.39,4.68-8.72C241,80.38,236.26,80.07,236.26,84.88Z"
                transform="translate(0 0)" />
            <path class="cls-2"
                d="M257.17,72.34h.09c1.52-3.47,3.41-3.87,7-3.87v3.82l-1-.13a6.07,6.07,0,0,0-1-.09c-4.09,0-5.12,3.1-5.12,6.15v13.4h-3.69V68.92h3.69Z"
                transform="translate(0 0)" />
            <path class="cls-2"
                d="M278.7,76.2c.09-3.73-1.75-4.72-3.14-4.72-2.84,0-4.77,1.35-4.77,7.56,0,7.37.94,10,4.77,10,.85,0,3.41-.9,3.27-5h3.87c.14,6.38-4.63,8-7.14,8-4.82,0-8.64-1.43-8.64-11.46,0-6.66.77-12.14,8.64-12.14,4.53,0,7.19,2.65,7,7.73Z"
                transform="translate(0 0)" />
            <path class="cls-2"
                d="M299.52,91.62V76.25c0-2.79-.91-4.77-4-4.77-3.69,0-4.63,3-4.63,6.79V91.62h-3.69V59.17h3.69V71.84H291c1.48-2.65,3.19-3.37,6.15-3.37,3.87,0,6,1.94,6,7.06V91.62Z"
                transform="translate(0 0)" />
            <path class="cls-2"
                d="M329.9,68.11c.05-1.84-.09-3.69-.94-4.72A5.43,5.43,0,0,0,325.32,62c-3.42,0-4.77,2.07-4.9,2.51s-.95,1.17-.95,6.75v8.68c0,8,2.61,8.89,5.8,8.89,1.26,0,5.08-.45,5.13-6.78h4.27c.18,10.25-7.06,10.25-9.17,10.25-4.05,0-10.25-.27-10.25-12.86V70.27c0-9.17,4-11.78,10.43-11.78s8.9,3.33,8.49,9.62Z"
                transform="translate(0 0)" />
            <path class="cls-2"
                d="M342.76,81.46c0,6.34,1.71,7.6,4.58,7.6,2.52,0,3.82-2,4-4.32h4.05c-.05,5-3.15,7.33-7.92,7.33s-8.63-1.43-8.63-11.46c0-6.66.77-12.14,8.63-12.14,6.48,0,8.09,3.55,8.09,11.06v1.93Zm8.86-2.78c0-6.61-1.85-7.42-4.54-7.42-2.34,0-4.27,1.12-4.32,7.42Z"
                transform="translate(0 0)" />
            <path class="cls-2"
                d="M372.21,91.62V75.89c0-2.43-.86-4.41-4-4.41-4,0-4.62,3.6-4.62,6.7V91.62h-3.7v-18c0-1.57-.08-3.14-.22-4.72h3.92v2.92h.17c1.44-2.56,3.15-3.37,6.07-3.37,4.86,0,6.07,2.92,6.07,7.42V91.62Z"
                transform="translate(0 0)" />
            <path class="cls-2"
                d="M382.05,68.92V64.56l3.68-1.66v6h4.95v2.79h-4.95V85.6c0,1.44,0,3.28,3.38,3.28.27,0,.85-.09,1.66-.18v2.83c-1.21.09-2.43.36-3.64.36-3.51,0-5.08-1.44-5.08-4V71.71h-3.73V68.92Z"
                transform="translate(0 0)" />
            <path class="cls-2"
                d="M397.2,72.34h.09c1.53-3.47,3.42-3.87,7-3.87v3.82l-1-.13a6.07,6.07,0,0,0-1-.09c-4.09,0-5.12,3.1-5.12,6.15v13.4h-3.69V68.92h3.69Z"
                transform="translate(0 0)" />
            <path class="cls-2"
                d="M410.64,81.46c0,6.34,1.71,7.6,4.58,7.6,2.52,0,3.82-2,4-4.32h4.05c-.05,5-3.15,7.33-7.92,7.33s-8.63-1.43-8.63-11.46c0-6.66.77-12.14,8.63-12.14,6.48,0,8.09,3.55,8.09,11.06v1.93Zm8.86-2.78c0-6.61-1.85-7.42-4.54-7.42-2.34,0-4.27,1.12-4.32,7.42Z"
                transform="translate(0 0)" />
            <path class="cls-2"
                d="M438.51,96.93c-2-6.34-4.45-12.72-4.45-19.43,0-6.92,2.48-13.34,4.49-19.86h2.75a82.08,82.08,0,0,0-3,20c0,6.52,1.35,13,2.83,19.24Z"
                transform="translate(0 0)" />
            <path class="cls-2"
                d="M450.38,91.62h-3.87V59.17h6.7l8.18,27.24h.09l8.27-27.24h6.84V91.62h-4.14V62.76h-.09l-9.08,28.86h-3.91l-8.9-28.86h-.09Z"
                transform="translate(0 0)" />
            <path class="cls-2"
                d="M482.74,59.17h10c4.14,0,7.11,1.48,8.72,4.94,1.31,2.74,1.44,9.22,1.44,10.25,0,6.92-.63,10.92-2,13.08-1.75,2.79-5,4.18-10.69,4.18h-7.47ZM486.88,88h3.91c5.75,0,7.87-2.16,7.87-9.72V71.75c0-6.56-2-9-6.34-9h-5.44Z"
                transform="translate(0 0)" />
            <path class="cls-2" d="M527.38,59.17v3.59h-8.54V91.62h-4.13V62.76h-8.54V59.17Z"
                transform="translate(0 0)" />
            <path class="cls-2"
                d="M535.61,76.7V91.62h-4.13V59.17h11.19c5.76,0,7.77,4,7.77,8.09,0,3.82-2.11,6.74-5.93,7.41v.1c3.73.58,5.08,1.84,5.3,8.35a49.6,49.6,0,0,0,1.13,8.5h-4.32c-1.17-2.24-.89-6.47-1.26-10.79-.31-4-3.5-4.13-4.9-4.13Zm0-3.6h6.2c3,0,4.41-2.56,4.41-5.39,0-2.34-1.17-4.95-4.36-4.95h-6.25Z"
                transform="translate(0 0)" />
            <path class="cls-2"
                d="M570,68.11c0-1.84-.09-3.69-.94-4.72A5.43,5.43,0,0,0,565.42,62c-3.42,0-4.77,2.07-4.9,2.51s-.95,1.17-.95,6.75v8.68c0,8,2.61,8.89,5.8,8.89,1.26,0,5.09-.45,5.13-6.78h4.27C575,92.3,567.71,92.3,565.6,92.3c-4.05,0-10.25-.27-10.25-12.86V70.27c0-9.17,4-11.78,10.43-11.78s8.9,3.33,8.49,9.62Z"
                transform="translate(0 0)" />
            <path class="cls-2"
                d="M578.67,96.93c1.49-6.29,2.84-12.72,2.84-19.24a82.08,82.08,0,0,0-3-20h2.74c2,6.52,4.49,12.94,4.49,19.86,0,6.71-2.47,13.09-4.45,19.43Z"
                transform="translate(0 0)" />
            <g class="cls-3">
                <path class="cls-4"
                    d="M85.27,18.43l-.2.21A49.27,49.27,0,0,1,95.7,34.73a48.6,48.6,0,0,1,3.49,21.93l0,.36.36-.05.21,0a1.55,1.55,0,0,1,.32,0h.27l0-.28a49.63,49.63,0,0,0-3.57-22.32A50.94,50.94,0,0,0,85.84,17.78l-.18.25c-.12.14-.26.27-.39.4"
                    transform="translate(0 0)" />
                <path class="cls-4"
                    d="M64,91.14l-.37-1.08-.28.09A38.46,38.46,0,0,1,53.22,92.3a39.33,39.33,0,0,1-10.37-.6,38,38,0,0,1-4-1c-1-.31-2.12-.69-3.37-1.2l2.83-6.69a2.27,2.27,0,0,0,2.54-1.64,2.31,2.31,0,0,0-1.59-2.82,2.25,2.25,0,0,0-2.33.74,30.2,30.2,0,0,1-4.2-2.59,31.09,31.09,0,0,1-2.66-2.3l3.6-3.61a4.13,4.13,0,0,0,1.43.73,4.27,4.27,0,1,0,2.29-8.23,4.14,4.14,0,0,0-3.28.47,18,18,0,0,1-1.93-3.77A19.08,19.08,0,0,1,31,53.71a2.25,2.25,0,0,0,1.66-1.6,2.28,2.28,0,0,0-4.34-1.38L17.51,49.8a6.8,6.8,0,0,0-5-6.62l-.14,0v0c0-.14.07-.28.11-.42a38.57,38.57,0,0,1,8.46-15.49L22.87,29a6.63,6.63,0,0,0-1.18,2.34,6.86,6.86,0,1,0,12.14-2.18,29.2,29.2,0,0,1,6.57-3.37,27.69,27.69,0,0,1,3.11-.9,6.76,6.76,0,0,0,6.12,5.43v2.56h1.15V30.27a6.81,6.81,0,0,0,6-5A6.86,6.86,0,0,0,43.6,21.64a6.72,6.72,0,0,0-.22,2.08,28.63,28.63,0,0,0-3.36,1,30.61,30.61,0,0,0-7,3.58,6.69,6.69,0,0,0-2.93-1.72,6.83,6.83,0,0,0-6.46,1.59l-2-1.81a39,39,0,0,1,12.53-8.84,2.23,2.23,0,0,0,2.88.57,2.26,2.26,0,0,0,1.08-1.38,2.29,2.29,0,0,0-1.59-2.81,2,2,0,0,0-.85,0L35.42,13A6.79,6.79,0,0,0,39,8.69a6.61,6.61,0,0,0,.07-3.28,48,48,0,0,1,22.55.12,4.84,4.84,0,0,0,2.68,5.11l-.94,2.72A2.25,2.25,0,0,0,61,15a2.28,2.28,0,0,0,1.59,2.8A2.25,2.25,0,0,0,65,16.94a39.14,39.14,0,0,1,8.5,4.76l.18-.24.33-.44.18-.23a40.67,40.67,0,0,0-8.75-4.92,2.21,2.21,0,0,0-1-2.12L65.42,11A4.86,4.86,0,1,0,62,4.42,49.54,49.54,0,0,0,38.79,4.3,6.82,6.82,0,0,0,29.08.89,6.75,6.75,0,0,0,25.85,5a6.85,6.85,0,0,0,8.5,8.42l.3.77a2.28,2.28,0,0,0-.87,1.25,2.15,2.15,0,0,0,0,1,40.45,40.45,0,0,0-12.93,9.12l-3.29-3A4.8,4.8,0,0,0,18.27,21a4.86,4.86,0,1,0-8.17,2.07l-.16.21c-.18.21-.35.43-.51.65A50.22,50.22,0,0,0,1,43.47l0,.34c-.18.89-.32,1.8-.45,2.73C.3,47.74.18,49,.1,50.3A48.1,48.1,0,0,0,2.64,69.05a4.81,4.81,0,0,0-2.46,3,4.86,4.86,0,1,0,9.32-.13l9.34-4.15A4.82,4.82,0,0,0,21.71,70a4.77,4.77,0,0,0,3.2-.22c.06.08.11.17.16.25.19.31.37.61.58.9a30.21,30.21,0,0,0,2.82,3.3l-1.94,1.94A6.57,6.57,0,0,0,24,74.77a6.77,6.77,0,0,0-5.21.63A6.84,6.84,0,1,0,27,86.18a40.21,40.21,0,0,0,7,3.89l-1,2.36a1.33,1.33,0,0,0-.28-.1,6.94,6.94,0,1,0,1.34.55l1-2.35.39.18c.32.15.65.3,1,.42a39.84,39.84,0,0,0,10.42,2.29,40.76,40.76,0,0,0,6.44,0,40.18,40.18,0,0,0,10.43-2.21ZM28.22,72.3l-.16-.18c-.5-.59-1-1.22-1.48-1.88-.19-.27-.36-.55-.53-.83l-.14-.23a4.87,4.87,0,1,0-7.53-2.45L9,70.87a4.8,4.8,0,0,0-2.87-2.2,4.88,4.88,0,0,0-2.46,0,49.71,49.71,0,0,1-2-7.8,49.52,49.52,0,0,1-.49-10.47c.07-1.34.19-2.55.34-3.68s.37-2.42.62-3.63l0-.18a48.81,48.81,0,0,1,2.93-9.16,49.61,49.61,0,0,1,5.17-9.1,6.8,6.8,0,0,1,.46-.6c0-.07.11-.14.16-.22a4.62,4.62,0,0,0,1.3.6,4.84,4.84,0,0,0,4.47-1l3.34,3.05a40,40,0,0,0-8.73,16h0c0,.18-.09.35-.13.53v0A6.84,6.84,0,1,0,14,55.74a6.76,6.76,0,0,0,3.23-4.13,5.28,5.28,0,0,0,.13-.67l10.88.94a2.26,2.26,0,0,0,1.61,1.81,20.49,20.49,0,0,0,1.22,6.52,19.32,19.32,0,0,0,2.12,4.09,4,4,0,0,0-.32,5.46L29.28,73.4l-.15-.15c-.31-.31-.62-.62-.91-1m6.22,16.77a39.27,39.27,0,0,1-6.7-3.76,7,7,0,0,0,1-2.1A6.81,6.81,0,0,0,27.35,77L29.27,75l.13.14c.17.18.34.35.53.52l.29.26h0c.59.51,1.2,1,1.83,1.48a31.11,31.11,0,0,0,4.37,2.7,2.24,2.24,0,0,0,.86,2.23Z"
                    transform="translate(0 0)" />
                <path class="cls-4"
                    d="M49.94,34h-.3v7A2.23,2.23,0,0,0,48,42.59a2.28,2.28,0,0,0,1.58,2.8A2.25,2.25,0,0,0,52.35,44l.41.1a9.27,9.27,0,0,1,4.64,3,9.47,9.47,0,0,1,2.21,5,8.1,8.1,0,0,1,.06.86,6.12,6.12,0,0,1,0,.84l0,.3,1.16.07v-.3a8.68,8.68,0,0,0,0-.88l22.4-1.48A6.85,6.85,0,1,0,91.83,44a6.86,6.86,0,0,0-8.44,4.77,6.22,6.22,0,0,0-.22,1.77L60.75,52a10.58,10.58,0,0,0-7.68-9,6.21,6.21,0,0,0-.62-.14A2.25,2.25,0,0,0,50.84,41h0V34h-.85"
                    transform="translate(0 0)" />
                <path class="cls-4"
                    d="M74.64,22.15l-.18.23.22.16a39.31,39.31,0,0,1,7.25,7.64,4.08,4.08,0,0,0-1.35,2,4.19,4.19,0,0,0,.2,2.74L69,41.73a2.18,2.18,0,0,0-1-.61,2.28,2.28,0,1,0,1.58,2.81,2.14,2.14,0,0,0,0-1.2l11.79-6.8a4.19,4.19,0,0,0,2.2,1.53,4.27,4.27,0,0,0,5.25-3,4.21,4.21,0,0,0-.39-3.24,4.26,4.26,0,0,0-5.57-1.75,40.65,40.65,0,0,0-7.45-7.85l-.24-.18-.19.24Z"
                    transform="translate(0 0)" />
                <path class="cls-5"
                    d="M125.15,97.8c-.43-10.45-7.49-17.87-7.52-17.9L105.48,64.7a4.89,4.89,0,0,0-7.8,5.91L94.9,67.14a4.9,4.9,0,1,0-7.65,6.11L84.6,69.92a4.9,4.9,0,0,0-8.4,4.82l-.19.15,6.36,7.94L65.3,61.51a4.9,4.9,0,0,0-7.65,6.11L82.72,99l-.6,2.59c-.55-.12-3.07-.78-11.06-2.87l-.13,0a13.78,13.78,0,0,0-8.83,1,12.39,12.39,0,0,0-2.76,1.62c-1.43,1.14-2.16,2.4-2.06,3.55s1.33,2.32,3.43,2.89l.28.07.29,0a29.3,29.3,0,0,1,3.2-.23c4.24,0,9.94,3.58,10.57,4l.25.13L88.74,117l.79.31.12.06c5.56,3.29,19,2.39,19.14,2.37l3,3.8h34.31Z"
                    transform="translate(0 0)" />
                <path class="cls-5"
                    d="M73.71,21.46l-.17.24L64.71,33.28a4.52,4.52,0,0,0-1.16-.51,4.84,4.84,0,0,0-5.18,1.79,21.25,21.25,0,0,0-2.67-1,20.52,20.52,0,0,0-4.91-.72H50.5c-.19,0-.38,0-.56,0h-.3a20.2,20.2,0,0,0-17.36,10.8,2.26,2.26,0,0,0-1.57.25,2.28,2.28,0,0,0,.51,4.19,2.23,2.23,0,0,0,2.41-.85l2.59,1.06a4.87,4.87,0,0,0,3.41,5.89l.12,0a10.39,10.39,0,0,0,7.58,9.16,2.25,2.25,0,0,0,1.52,2L48,78a4.85,4.85,0,0,0-1,9.53,4.83,4.83,0,0,0,3.69-.45,4.76,4.76,0,0,0,2.29-2.94,4.84,4.84,0,0,0-3.37-6,3.1,3.1,0,0,0-.42-.08L50,65.42a2.28,2.28,0,1,0-2.49-3.18A9.38,9.38,0,0,1,42,57.84a9,9,0,0,1-1.12-3.46h0a4.87,4.87,0,1,0-4.3-7.13l-2.56-1a2.21,2.21,0,0,0-.78-2A19,19,0,0,1,49.64,34h1.15a19.54,19.54,0,0,1,4.6.69,17.9,17.9,0,0,1,2.38.86,4,4,0,0,0-.21.61A4.86,4.86,0,1,0,65.62,34l8.84-11.59.18-.23L75,21.7l.18-.23,1.53-2a6.65,6.65,0,0,0,1.83.84,6.85,6.85,0,0,0,6.56-1.68l.2-.21c.13-.13.27-.26.39-.4l.17-.24A7,7,0,0,0,87,15.56a6.86,6.86,0,0,0-.64-5.21,6.75,6.75,0,0,0-4.13-3.23,6.84,6.84,0,0,0-6.43,11.67l-1.52,2-.18.23Z"
                    transform="translate(0 0)" />
            </g>
        </g>
    </g>
</svg>